<svg width="36" height="45" viewBox="0 0 36 45" fill="#4CAF50" xmlns="http://www.w3.org/2000/svg">
<path d="M10.7103 18.1484C10.7332 18.1484 10.7565 18.1442 10.7781 18.1363C18.7423 15.1962 20.1644 7.61911 19.1938 0.596421C19.174 0.45338 19.1455 0.300072 19.2149 0.173433C19.289 0.0382858 19.4323 -0.0345904 19.5756 0.0162456C27.3068 4.0375 36 12.8111 36 25.9716C36 36.0613 28.6468 44.9811 17.9607 44.9811C14.1476 45.1656 10.3853 43.9938 7.26767 41.6507C4.15004 39.3075 1.85462 35.9266 0.743713 32.0413C-0.367199 28.1561 -0.230337 23.9879 1.1327 20.1946C2.49573 16.4013 5.00731 13.1989 8.27102 11.093C8.47719 10.9467 8.75207 11.093 8.75207 11.3489C8.85374 12.6829 9.18939 16.0085 10.5503 18.0636C10.5858 18.1172 10.646 18.1484 10.7103 18.1484Z"/>
</svg>
