<svg xmlns="http://www.w3.org/2000/svg" style="display:none" id="customSvgLibrary">
  
  <symbol id="slides" viewBox="0 0 106 31"><title>Slides Framework</title><path d="M17.413 14.04c-.56-5.84-5.6-7-8.52-7-4.6 0-8.6 2.92-8.6 7.52 0 3 2.4 4.88 5.28 5.8 4.24 1.64 5.88 1.84 5.88 3.36 0 1.08-1.2 1.72-2.32 1.72-.28 0-2.24 0-2.52-2.04h-6.6c.6 5.84 5.68 7.36 9.04 7.36 4.92 0 9.04-2.88 9.04-7.76 0-4.8-4-5.92-7.76-6.96-1.76-.52-3.4-1.2-3.4-2.2 0-.6.48-1.48 1.88-1.48 1.96 0 2.04 1.2 2.08 1.68h6.52zm2.222 15.96h6.64v-29.6h-6.64v29.6zm9.662-24.56h6.64v-5.04h-6.64v5.04zm0 24.56h6.64v-22.2h-6.64v22.2zm32.782-29.6h-6.64v9.28c-.72-.72-2.6-2.64-6.52-2.64-5.64 0-11 4.28-11 11.8 0 6.68 4.4 11.88 11.12 11.88 4.48 0 6.08-2.2 6.72-3.12v2.4h6.32v-29.6zm-17.52 18.4c0-2.56 1.8-5.56 5.64-5.56 1.56 0 2.96.56 3.96 1.56 1 .96 1.64 2.32 1.64 3.92.08 1.64-.52 3.08-1.56 4.12s-2.52 1.68-4.12 1.68c-3.12 0-5.56-2.28-5.56-5.68v-.04zm42.502 2.4c.52-4.08-.32-7.64-3.12-10.64-2.08-2.2-5-3.52-8.4-3.52-6.76 0-11.64 5.72-11.64 11.92 0 6.6 5.4 11.76 11.76 11.76 2.28 0 4.48-.68 6.32-2 1.88-1.28 3.44-3.2 4.52-5.68h-6.8c-.8 1.16-1.92 2.08-4.04 2.08-2.6 0-4.84-1.56-5.12-3.92h16.52zm-16.44-5.04c.16-1.04 1.52-3.52 4.96-3.52s4.8 2.48 4.96 3.52h-9.92zm34.502-2.12c-.56-5.84-5.6-7-8.52-7-4.6 0-8.6 2.92-8.6 7.52 0 3 2.4 4.88 5.28 5.8 4.24 1.64 5.88 1.84 5.88 3.36 0 1.08-1.2 1.72-2.32 1.72-.28 0-2.24 0-2.52-2.04h-6.6c.6 5.84 5.68 7.36 9.04 7.36 4.92 0 9.04-2.88 9.04-7.76 0-4.8-4-5.92-7.76-6.96-1.76-.52-3.4-1.2-3.4-2.2 0-.6.48-1.48 1.88-1.48 1.96 0 2.04 1.2 2.08 1.68h6.52z"/></symbol>
  
  <symbol id="close" viewBox="0 0 30 30"><path d="M15 0c-8.3 0-15 6.7-15 15s6.7 15 15 15 15-6.7 15-15-6.7-15-15-15zm5.7 19.3c.4.4.4 1 0 1.4-.2.2-.4.3-.7.3s-.5-.1-.7-.3l-4.3-4.3-4.3 4.3c-.2.2-.4.3-.7.3s-.5-.1-.7-.3c-.4-.4-.4-1 0-1.4l4.3-4.3-4.3-4.3c-.4-.4-.4-1 0-1.4s1-.4 1.4 0l4.3 4.3 4.3-4.3c.4-.4 1-.4 1.4 0s.4 1 0 1.4l-4.3 4.3 4.3 4.3z"/></symbol>

  <symbol id="arrow-left" viewBox="0 0 29 56"><path d="M28.7.3c.4.4.4 1 0 1.4l-26.3 26.3 26.3 26.3c.4.4.4 1 0 1.4-.4.4-1 .4-1.4 0l-27-27c-.4-.4-.4-1 0-1.4l27-27c.3-.3 1-.4 1.4 0z"/></symbol>
  
  <symbol id="arrow-right" viewBox="0 0 29 56"><path d="M.3 55.7c-.4-.4-.4-1 0-1.4l26.3-26.3-26.3-26.3c-.4-.4-.4-1 0-1.4.4-.4 1-.4 1.4 0l27 27c.4.4.4 1 0 1.4l-27 27c-.3.3-1 .4-1.4 0z"/></symbol>

  <symbol id="back" viewBox="0 0 20 20"><path d="M2.3 10.7l5 5c.4.4 1 .4 1.4 0s.4-1 0-1.4l-3.3-3.3h11.6c.6 0 1-.4 1-1s-.4-1-1-1h-11.6l3.3-3.3c.4-.4.4-1 0-1.4-.2-.2-.4-.3-.7-.3s-.5.1-.7.3l-5 5c-.2.2-.3.5-.3.7 0 .2.1.5.3.7z"/></symbol>
  
  <symbol id="menu" viewBox="0 0 18 18"><path d="M16 5h-14c-.6 0-1-.4-1-1 0-.5.4-1 1-1h14c.5 0 1 .4 1 1s-.4 1-1 1zm-14 5h14c.5 0 1-.4 1-1 0-.5-.4-1-1-1h-14c-.6 0-1 .4-1 1s.4 1 1 1zm14 3h-14c-.5 0-1 .4-1 1 0 .5.4 1 1 1h14c.5 0 1-.4 1-1s-.4-1-1-1z"/></symbol>
  
  <symbol id="share" viewBox="0 0 18 18"><path d="M16 8c-.6 0-1 .4-1 1v6h-12v-6c0-.6-.4-1-1-1s-1 .4-1 1v6c0 1.1.9 2 2 2h12c1.1 0 2-.9 2-2v-6c0-.6-.4-1-1-1zm-2.3-2.3c.4-.4.4-1 0-1.4l-4-4c-.4-.4-1-.4-1.4 0l-4 4c-.4.4-.4 1 0 1.4s1 .4 1.4 0l2.3-2.3v7.6c0 .6.4 1 1 1s1-.4 1-1v-7.6l2.3 2.3c.4.4 1 .4 1.4 0z"/></symbol>

  <symbol id="arrow-down" viewBox="0 0 24 24"><path d="M12 18c-.2 0-.5-.1-.7-.3l-11-10c-.4-.4-.4-1-.1-1.4.4-.4 1-.4 1.4-.1l10.4 9.4 10.3-9.4c.4-.4 1-.3 1.4.1.4.4.3 1-.1 1.4l-11 10c-.1.2-.4.3-.6.3z"/></symbol>
  
  <symbol id="arrow-up" viewBox="0 0 24 24"><path d="M11.9 5.9c.2 0 .5.1.7.3l11 10c.4.4.4 1 .1 1.4-.4.4-1 .4-1.4.1l-10.4-9.4-10.3 9.4c-.4.4-1 .3-1.4-.1-.4-.4-.3-1 .1-1.4l11-10c.1-.2.4-.3.6-.3z"/></symbol>
  
  <symbol id="arrow-top" viewBox="0 0 18 18"><path d="M15.7 7.3l-6-6c-.4-.4-1-.4-1.4 0l-6 6c-.4.4-.4 1 0 1.4.4.4 1 .4 1.4 0l4.3-4.3v11.6c0 .6.4 1 1 1s1-.4 1-1v-11.6l4.3 4.3c.2.2.4.3.7.3s.5-.1.7-.3c.4-.4.4-1 0-1.4z"/></symbol>
  
  <symbol id="play" viewBox="0 0 30 30"><path d="M7 30v-30l22 15z"/></symbol> 
  
  <symbol id="chat" viewBox="0 0 18 18"><path d="M5,17c-0.2,0-0.3,0-0.4-0.1C4.2,16.7,4,16.4,4,16v-2H2c-1.1,0-2-0.9-2-2V3c0-1.1,0.9-2,2-2h14c1.1,0,2,0.9,2,2v9 c0,1.1-0.9,2-2,2H9.3l-3.7,2.8C5.4,16.9,5.2,17,5,17z M2,12h3.5C5.8,12,6,12.2,6,12.5V14l2.4-1.8C8.6,12.1,8.8,12,9,12h7V3H2V12z M13,7H5C4.4,7,4,6.6,4,6s0.4-1,1-1h8c0.6,0,1,0.4,1,1S13.6,7,13,7z M13,10H5c-0.6,0-1-0.4-1-1s0.4-1,1-1h8c0.6,0,1,0.4,1,1 S13.6,10,13,10z"/></symbol>

  <symbol id="mail" viewBox="0 0 18 18"><path d="M16 2h-14c-1.1 0-2 .9-2 2v10c0 1.1.9 2 2 2h14c1.1 0 2-.9 2-2v-10c0-1.1-.9-2-2-2zm0 2v.5l-7 4.3-7-4.4v-.4h14zm-14 10v-7.2l6.5 4c.1.1.3.2.5.2s.4-.1.5-.2l6.5-4v7.2h-14z"/></symbol>

  <symbol id="sound-on" viewBox="0 0 18 18"><path d="M8.5,0.1C8.1-0.1,7.7,0,7.4,0.2L3.7,3H2C0.9,3,0,3.9,0,5v6c0,1.1,0.9,2,2,2h1.7l3.7,2.8C7.6,15.9,7.8,16,8,16 c0.2,0,0.3,0,0.4-0.1C8.8,15.7,9,15.4,9,15V1C9,0.6,8.8,0.3,8.5,0.1z M7,13l-2.4-1.8C4.4,11.1,4.2,11,4,11l-2,0l0-6h2 c0.2,0,0.4-0.1,0.6-0.2L7,3V13z M11.7,9.9l0.7,1.9C13.9,11.2,15,9.7,15,8c0-1.7-1.1-3.2-2.7-3.8l-0.7,1.9C12.5,6.4,13,7.2,13,8C13,8.9,12.5,9.6,11.7,9.9z M12.2,1.1l-0.3,2C14.3,3.5,16,5.6,16,8s-1.8,4.5-4.2,4.9l0.3,2C15.6,14.3,18,11.4,18,8C18,4.6,15.6,1.7,12.2,1.1z"/></symbol>
  
  <symbol id="sound-off" viewBox="0 0 18 18"><path d="M15.9,8l1.8-1.8c0.4-0.4,0.4-1,0-1.4s-1-0.4-1.4,0l-1.8,1.8l-1.8-1.8c-0.4-0.4-1-0.4-1.4,0s-0.4,1,0,1.4L13.1,8l-1.8,1.8 c-0.4,0.4-0.4,1,0,1.4c0.2,0.2,0.5,0.3,0.7,0.3s0.5-0.1,0.7-0.3l1.8-1.8l1.8,1.8c0.2,0.2,0.5,0.3,0.7,0.3s0.5-0.1,0.7-0.3 c0.4-0.4,0.4-1,0-1.4L15.9,8z M8.5,0.1C8.1-0.1,7.7,0,7.4,0.2L3.7,3H2C0.9,3,0,3.9,0,5v6c0,1.1,0.9,2,2,2h1.7l3.7,2.8C7.6,15.9,7.8,16,8,16 c0.2,0,0.3,0,0.4-0.1C8.8,15.7,9,15.4,9,15V1C9,0.6,8.8,0.3,8.5,0.1z M7,13l-2.4-1.8C4.4,11.1,4.2,11,4,11l-2,0l0-6h2 c0.2,0,0.4-0.1,0.6-0.2L7,3V13z"/></symbol>

  <symbol id="heart" viewBox="0 0 24 24"><path d="M17.4304 3C15.2848 3 13.4313 4.1925 12.5 5.943C11.5687 4.1925 9.71065 3 7.56957 3C4.49261 3 2 5.457 2 8.4855C2 11.514 3.90826 14.2815 6.37348 16.554C8.92543 18.903 12.5 21 12.5 21C12.5 21 16.0426 18.8625 18.6265 16.554C21.3839 14.088 23 11.514 23 8.4855C23 5.457 20.5074 3 17.4304 3Z"/></symbol>

  <symbol id="repost">  <path d="M4.72783 15.2138C6.23438 15.2138 7.45567 13.9989 7.45567 12.5002C7.45567 11.0015 6.23438 9.78662 4.72783 9.78662C3.22129 9.78662 2 11.0015 2 12.5002C2 13.9989 3.22129 15.2138 4.72783 15.2138Z"/><path d="M19.2718 21.9999C20.7783 21.9999 21.9996 20.785 21.9996 19.2863C21.9996 17.7877 20.7783 16.5728 19.2718 16.5728C17.7652 16.5728 16.5439 17.7877 16.5439 19.2863C16.5439 20.785 17.7652 21.9999 19.2718 21.9999Z"/><path d="M19.2718 8.42717C20.7783 8.42717 21.9996 7.21225 21.9996 5.71358C21.9996 4.21491 20.7783 3 19.2718 3C17.7652 3 16.5439 4.21491 16.5439 5.71358C16.5439 7.21225 17.7652 8.42717 19.2718 8.42717Z"/><path d="M6.90356 11.8778L17.142 6.52295" fill="none" stroke="" stroke-miterlimit="10"/><path d="M6.9231 13.0869L17.1616 18.4462" fill="none" stroke="" stroke-miterlimit="10"/></symbol> 

  <symbol id="star" viewBox="0 0 24 24"><path d="M11.5516 3.90849C11.735 3.53687 12.265 3.53687 12.4484 3.90849L14.5287 8.1237C14.6015 8.27127 14.7423 8.37356 14.9052 8.39722L19.5569 9.07316C19.967 9.13276 20.1308 9.63674 19.834 9.92601L16.468 13.2071C16.3501 13.322 16.2964 13.4875 16.3242 13.6497L17.1188 18.2826C17.1889 18.6911 16.7601 19.0026 16.3933 18.8097L12.2327 16.6223C12.087 16.5457 11.913 16.5457 11.7673 16.6223L7.60667 18.8097C7.23985 19.0026 6.81114 18.6911 6.88119 18.2826L7.67581 13.6497C7.70363 13.4875 7.64985 13.322 7.53201 13.2071L4.16597 9.92601C3.86921 9.63674 4.03296 9.13276 4.44307 9.07316L9.09483 8.39722C9.25769 8.37356 9.39847 8.27127 9.4713 8.1237L11.5516 3.90849Z"/></symbol>

  <symbol id="check" viewBox="0 0 24 24" fill="none"><path d="M3 12L9 18L21 6" stroke-width="2" stroke-linecap="round" stroke-linejoin="round"/></symbol>

  <!-- social -->
  <symbol id="apple" viewBox="-1 1 24 24"><path d="M17.6 13.8c0-3 2.5-4.5 2.6-4.6-1.4-2.1-3.6-2.3-4.4-2.4-1.9-.2-3.6 1.1-4.6 1.1-.9 0-2.4-1.1-4-1-2 0-3.9 1.2-5 3-2.1 3.7-.5 9.1 1.5 12.1 1 1.5 2.2 3.1 3.8 3 1.5-.1 2.1-1 3.9-1s2.4 1 4 1 2.7-1.5 3.7-2.9c1.2-1.7 1.6-3.3 1.7-3.4-.1-.1-3.2-1.3-3.2-4.9zm-3.1-9c.8-1 1.4-2.4 1.2-3.8-1.2 0-2.7.8-3.5 1.8-.8.9-1.5 2.3-1.3 3.7 1.4.1 2.8-.7 3.6-1.7z"/></symbol>

  <symbol id="dribbble" viewBox="0 0 24 24"><path d="M12 0c-6.7 0-12 5.3-12 12s5.3 12 12 12 12-5.3 12-12-5.3-12-12-12zm7.9 5.7c1.3 1.7 2.1 3.9 2.3 6.1-.4-.1-2.4-.4-4.7-.4-.8 0-1.5 0-2.3.1 0-.1-.1-.3-.3-.5l-.7-1.5c3.7-1.4 5.3-3.4 5.7-3.8zm-7.9-3.8c2.5 0 4.9.9 6.7 2.5-.3.4-1.9 2.3-5.2 3.6-1.6-2.9-3.3-5.3-3.7-5.9.6-.1 1.4-.2 2.2-.2zm-4.4 1c.4.6 2.1 3 3.7 5.8-4.4 1.2-8.2 1.2-9.2 1.2h-.1c.8-3.1 2.9-5.6 5.6-7zm-5.7 9.1v-.3h.3c1.2 0 5.6-.1 10.1-1.5l.8 1.6c-.1 0-.3 0-.4.1-5.1 1.6-7.9 6-8.3 6.7-1.6-1.7-2.5-4.1-2.5-6.6zm10.1 10.1c-2.3 0-4.4-.8-6.1-2.1.3-.5 2.4-4.4 7.9-6.3 1.3 3.6 2 6.7 2.1 7.6-1.2.6-2.6.8-3.9.8zm5.7-1.8c-.1-.8-.7-3.6-2-7.1.7-.1 1.3-.1 2-.1 2.1 0 3.7.4 4.1.5-.3 2.8-1.8 5.2-4.1 6.7z"/></symbol>

  <symbol id="facebook" viewBox="0 0 24 24"><path d="M24 1.3v21.3c0 .7-.6 1.3-1.3 1.3h-6.1v-9.3h3.1l.5-3.6h-3.6v-2.2c0-1.1.3-1.8 1.8-1.8h1.9v-3.2c-.3 0-1.5-.1-2.8-.1-2.8 0-4.7 1.7-4.7 4.8v2.7h-3.1v3.6h3.1v9.2h-11.5c-.7 0-1.3-.6-1.3-1.3v-21.4c0-.7.6-1.3 1.3-1.3h21.3c.8 0 1.4.6 1.4 1.3z"/></symbol>

  <symbol id="facebook2" viewBox="0 0 512 512"><path d="M288 176v-64c0-17.664 14.336-32 32-32h32v-80h-64c-53.024 0-96 42.976-96 96v80h-64v80h64v256h96v-256h64l32-80h-96z"/></symbol>
   
  <symbol id="fb-like" viewBox="0 0 20 20"><path d="M0 8v12h5v-12h-5zm2.5 10.8c-.4 0-.8-.3-.8-.8 0-.4.3-.8.8-.8s.8.3.8.8c0 .4-.4.8-.8.8zm3.5-.8h9.5c1.1 0 1.7-1 1.7-1.7 0-.3-.4-1-.4-1 1.4-.3 1.7-1.2 1.7-1.7-.1-.5-.3-.9-.5-1 1-.4 1.5-1.1 1.4-1.9-.1-.8-1-1.5-1-1.5 1-.6.9-1.5.9-1.5-.3-1.3-1.5-1.7-1.7-1.7h-5.6s.3-.5.3-2.4-1.3-3.6-2.6-3.6c0 0-.7.1-1 .3v3.5l-2.7 4.4v9.8z"/></symbol>
  
  <symbol id="instagram" viewBox="0 0 20 20"><circle cx="10" cy="10" r="3.3"/><path d="M13,0H7C2.2,0,0,2.2,0,7v6c0,4.8,2.1,7,7,7h6c4.8,0,7-2.2,7-7V7C20,2.2,17.9,0,13,0z M10,15.1c-2.8,0-5.1-2.3-5.1-5.1 S7.2,4.9,10,4.9s5.1,2.3,5.1,5.1S12.8,15.1,10,15.1z M15.3,5.9c-0.7,0-1.2-0.5-1.2-1.2c0-0.7,0.5-1.2,1.2-1.2s1.2,0.5,1.2,1.2 C16.5,5.3,16,5.9,15.3,5.9z"/></symbol>

  <symbol id="behance" viewBox="0 0 511.958 511.958"><path d="M210.624 240.619c10.624-5.344 18.656-11.296 24.16-17.728 9.792-11.584 14.624-26.944 14.624-45.984 0-18.528-4.832-34.368-14.496-47.648-16.128-21.632-43.424-32.704-82.016-33.28h-152.896v312.096h142.56c16.064 0 30.944-1.376 44.704-4.192 13.76-2.848 25.664-8.064 35.744-15.68 8.96-6.624 16.448-14.848 22.4-24.544 9.408-14.656 14.112-31.264 14.112-49.76 0-17.92-4.128-33.184-12.32-45.728-8.288-12.544-20.448-21.728-36.576-27.552zm-147.552-90.432h68.864c15.136 0 27.616 1.632 37.408 4.864 11.328 4.704 16.992 14.272 16.992 28.864 0 13.088-4.32 22.24-12.864 27.392-8.608 5.152-19.776 7.744-33.472 7.744h-76.928v-68.864zm108.896 198.24c-7.616 3.68-18.336 5.504-32.064 5.504h-76.832v-83.232h77.888c13.568.096 24.128 1.888 31.68 5.248 13.44 6.08 20.128 17.216 20.128 33.504 0 19.2-6.912 32.128-20.8 38.976zM327.168 110.539h135.584v38.848h-135.584zM509.856 263.851c-2.816-18.08-9.024-33.984-18.688-47.712-10.592-15.552-24.032-26.944-40.384-34.144-16.288-7.232-34.624-10.848-55.04-10.816-34.272 0-62.112 10.72-83.648 32-21.472 21.344-32.224 52.032-32.224 92.032 0 42.656 11.872 73.472 35.744 92.384 23.776 18.944 51.232 28.384 82.4 28.384 37.728 0 67.072-11.232 88.032-33.632 13.408-14.144 20.992-28.064 22.656-41.728h-62.464c-3.616 6.752-7.808 12.032-12.608 15.872-8.704 7.04-20.032 10.56-33.92 10.56-13.216 0-24.416-2.912-33.76-8.704-15.424-9.28-23.488-25.536-24.512-48.672h170.464c.256-19.936-.384-35.264-2.048-45.824zm-166.88 5.984c2.24-15.008 7.68-26.912 16.32-35.712 8.64-8.768 20.864-13.184 36.512-13.216 14.432 0 26.496 4.128 36.32 12.416 9.696 8.352 15.168 20.48 16.288 36.512h-105.44z"/></symbol>
  
  <symbol id="linkedin" viewBox="0 0 24 24"><path d="M5.9 21.9h-4.7v-14.2h4.7v14.2zm-2.3-16.1c-1.6 0-2.6-1.1-2.6-2.5s1-2.5 2.7-2.5c1.6 0 2.6 1 2.6 2.5-.1 1.4-1.2 2.5-2.7 2.5zm19.2 16.1h-4.7v-7.6c0-2-.7-3.3-2.3-3.3-1.3 0-2.1.9-2.5 1.7-.1.3-.1.8-.1 1.2v7.9h-4.7v-14.1h4.7v2c.7-.9 1.7-2.3 4.3-2.3 3.1 0 5.5 2.1 5.5 6.4v8.2h-.2z"/></symbol>

  <symbol id="medium" viewBox="0 0 130.8 104"><path d="M15.5 21.2c.2-1.6-.5-3.2-1.7-4.3l-12.1-14.7v-2.2h38l29.3 64.4 25.8-64.4h36.2v2.2l-10.5 10c-.9.7-1.3 1.8-1.2 2.9v73.7c0 1.1.3 2.2 1.2 2.9l10.2 10v2.2h-51.3v-2.2l10.6-10.2c1-1 1-1.3 1-2.9v-59.6l-29.4 74.7h-4l-34.2-74.7v50.3c0 2.2.4 4.2 1.9 5.7l13.7 16.8v2.2h-39v-2.2l13.8-16.7c1.5-1.5 1.8-3.3 1.8-5.7l-.1-58.2z"/></symbol>
  
  <symbol id="pinterest" viewBox="0 0 24 24"><path d="M5.9 13.9c1.2-2-.4-2.5-.6-4-1-6.1 7.1-10.2 11.4-6 2.9 2.9 1 12-3.7 11-4.6-.9 2.2-8.1-1.4-9.5-3-1.1-4.6 3.6-3.2 5.9-.8 4-2.5 7.7-1.8 12.7 2.3-1.7 3.1-4.8 3.7-8.1 1.2.7 1.8 1.4 3.3 1.5 5.5.4 8.6-5.4 7.8-10.7-.7-4.7-5.5-7.1-10.6-6.6-4.1.4-8.1 3.7-8.3 8.3-.1 2.8.7 4.9 3.4 5.5z"/></symbol>
  
  <symbol id="stumbleupon" viewBox="0 0 24 24"><path d="M13.3 9.6l1.6.8 2.5-.8v-1.4c0-3-2.4-5.4-5.4-5.4s-5.4 2.4-5.4 5.4v7.5c0 .7-.6 1.3-1.3 1.3s-1.3-.6-1.3-1.3v-3.2h-4v3.2c0 3 2.4 5.4 5.4 5.4s5.4-2.4 5.4-5.4v-7.5c0-.7.6-1.3 1.3-1.3s1.3.6 1.3 1.3l-.1 1.4zm6.6 2.9v3.2c0 .7-.6 1.3-1.3 1.3s-1.3-.6-1.3-1.3v-3.2l-2.5.8-1.6-.8v3.2c0 3 2.4 5.4 5.4 5.4s5.4-2.4 5.4-5.4v-3.2h-4.1z"/></symbol>
  
  <symbol id="twitter" viewBox="0 1 24 23"><path d="M21.5 7.6v.6c0 6.6-5 14.1-14 14.1-2.8 0-5.4-.8-7.6-2.2l1.2.1c2.3 0 4.4-.8 6.1-2.1-2.2 0-4-1.5-4.6-3.4.3.1.6.1.9.1.5 0 .9-.1 1.3-.2-2.1-.6-3.8-2.6-3.8-5 .7.4 1.4.6 2.2.6-1.3-.9-2.2-2.4-2.2-4.1 0-.9.2-1.8.7-2.5 2.4 3 6.1 5 10.2 5.2-.1-.4-.1-.7-.1-1.1 0-2.7 2.2-5 4.9-5 1.4 0 2.7.6 3.6 1.6 1-.3 2.1-.7 3-1.3-.4 1.2-1.1 2.1-2.2 2.7 1-.1 1.9-.4 2.8-.8-.6 1.1-1.4 2-2.4 2.7z"/></symbol>
  
  <symbol id="tumblr" viewBox="0 0 23 23"><path d="M12.573 4.94v-4.94h-3.188c-.072.183-.11.4-.11.622-.034.107-.072.184-.072.293-.328 1.829-1.28 3.11-2.892 3.807-.476.218-.914.253-1.39.218v3.987h2.342c.039 5.603.039 8.493.039 8.64v.332c.294 2.449 1.573 3.914 3.843 4.463.914.257 1.901.366 2.892.366 1.279-.036 2.525-.256 3.771-.659v-4.685c-.731.22-1.395.402-1.977.583-1.135.333-2.087.113-2.857-.619-.073-.11-.183-.257-.221-.403-.106-.586-.178-1.206-.178-1.795v-6.222h5.083v-3.988h-5.085z"/></symbol>

  <symbol id="xing" viewBox="0 0 24 24"><path d="M3.647 4.74c-.208 0-.384.073-.472.216-.091.148-.077.338.02.531l2.34 4.051v.02l-3.678 6.49c-.096.191-.091.383 0 .531.088.142.244.236.452.236h3.461c.518 0 .767-.349.944-.669l3.737-6.608-2.38-4.15c-.172-.307-.433-.649-.964-.649h-3.46zm14.542-4.74c-.517 0-.741.326-.927.659l-7.702 13.658 4.918 9.023c.172.307.437.659.967.659h3.457c.208 0 .371-.079.459-.221.092-.148.09-.343-.007-.535l-4.88-8.915v-.023l7.664-13.551c.096-.191.098-.386.007-.534-.088-.142-.252-.221-.46-.221h-3.496z"/></symbol>

  <symbol id="whatsapp" viewBox="0 0 512 512"><path d="M256.064 0h-.128c-141.152 0-255.936 114.816-255.936 256 0 56 18.048 107.904 48.736 150.048l-31.904 95.104 98.4-31.456c40.48 26.816 88.768 42.304 140.832 42.304 141.152 0 255.936-114.848 255.936-256s-114.784-256-255.936-256zm148.96 361.504c-6.176 17.44-30.688 31.904-50.24 36.128-13.376 2.848-30.848 5.12-89.664-19.264-75.232-31.168-123.68-107.616-127.456-112.576-3.616-4.96-30.4-40.48-30.4-77.216s18.656-54.624 26.176-62.304c6.176-6.304 16.384-9.184 26.176-9.184 3.168 0 6.016.16 8.576.288 7.52.32 11.296.768 16.256 12.64 6.176 14.88 21.216 51.616 23.008 55.392 1.824 3.776 3.648 8.896 1.088 13.856-2.4 5.12-4.512 7.392-8.288 11.744-3.776 4.352-7.36 7.68-11.136 12.352-3.456 4.064-7.36 8.416-3.008 15.936 4.352 7.36 19.392 31.904 41.536 51.616 28.576 25.44 51.744 33.568 60.032 37.024 6.176 2.56 13.536 1.952 18.048-2.848 5.728-6.176 12.8-16.416 20-26.496 5.12-7.232 11.584-8.128 18.368-5.568 6.912 2.4 43.488 20.48 51.008 24.224 7.52 3.776 12.48 5.568 14.304 8.736 1.792 3.168 1.792 18.048-4.384 35.52z"/></symbol>
  
  <symbol id="youtube" viewBox="0 0 24 24"><path d="M23.6 6.3c-.3-1.2-1.4-2.2-2.6-2.3-3-.3-6-.3-9-.3s-6 0-9 .3c-1.2.1-2.3 1.1-2.6 2.3-.4 1.8-.4 3.8-.4 5.7 0 1.9 0 3.9.4 5.7.3 1.2 1.4 2.2 2.6 2.3 3 .3 6 .3 9 .3s6 0 9-.3c1.3-.1 2.3-1.1 2.6-2.4.4-1.7.4-3.7.4-5.6 0-1.9 0-3.9-.4-5.7zm-14.1 9v-6.6l6.5 3.3-6.5 3.3z"/></symbol>

  <symbol id="pinterest-round" viewBox="0 0 18 18"><path fill-rule="evenodd" clip-rule="evenodd" d="M9 0C4.02931 0 0 4.02825 0 9C0 12.8123 2.37206 16.0694 5.71954 17.3809C5.64082 16.6693 5.57062 15.5769 5.75145 14.7983C5.9142 14.0962 6.80664 10.3254 6.80664 10.3254C6.80664 10.3254 6.53753 9.78608 6.53753 8.98936C6.53753 7.73738 7.26191 6.80345 8.16606 6.80345C8.93299 6.80345 9.30422 7.37998 9.30422 8.07139C9.30422 8.84364 8.81279 9.99775 8.55856 11.0678C8.34689 11.9645 9.00851 12.6942 9.89138 12.6942C11.4912 12.6942 12.7208 11.0072 12.7208 8.57239C12.7208 6.41733 11.1731 4.91112 8.96171 4.91112C6.40137 4.91112 4.89836 6.83217 4.89836 8.81704C4.89836 9.59036 5.19513 10.42 5.56743 10.8711C5.64082 10.9604 5.65146 11.0381 5.63019 11.1295C5.56211 11.4135 5.41 12.0252 5.38022 12.1496C5.34086 12.3145 5.24938 12.3496 5.07812 12.2709C3.95485 11.7475 3.25281 10.1031 3.25281 8.78407C3.25281 5.94504 5.31533 3.33684 9.19891 3.33684C12.3209 3.33684 14.7472 5.56211 14.7472 8.53516C14.7472 11.6369 12.791 14.1334 10.0775 14.1334C9.16488 14.1334 8.30753 13.659 8.01395 13.0995C8.01395 13.0995 7.56294 14.8174 7.45337 15.2386C7.25021 16.0204 6.70134 17.0001 6.33542 17.5979C7.17681 17.8596 8.07139 18 9 18C13.9707 18 18 13.9707 18 9C18 4.02825 13.9707 0 9 0Z"/></symbol>  

  <symbol id="snapchat" viewBox="0 0 17 16"><path fill-rule="evenodd" clip-rule="evenodd" d="M8.66346 0H8.66271C8.64804 0 8.63425 6.66672e-08 8.62112 0.000176493C8.51644 0.00123489 8.34435 0.00291043 8.32889 0.00308685C7.9515 0.00308685 7.19642 0.0564488 6.38535 0.41481C5.92161 0.619569 5.50448 0.896432 5.1456 1.23773C4.71772 1.64438 4.36915 2.14576 4.10975 2.72815C3.72985 3.58088 3.82003 5.01719 3.89246 6.17144L3.89273 6.17324C3.90048 6.29686 3.90863 6.42594 3.91608 6.55172C3.86034 6.57734 3.76998 6.60437 3.6368 6.60437C3.42251 6.60437 3.16769 6.53579 2.87961 6.40067C2.79484 6.36116 2.69809 6.34118 2.59135 6.34118C2.41983 6.34118 2.23903 6.39172 2.08219 6.48402C1.88486 6.6 1.75736 6.76393 1.72273 6.94567C1.69991 7.06588 1.70101 7.3035 1.96469 7.54446C2.10972 7.67712 2.32278 7.79945 2.59778 7.90825C2.66994 7.93669 2.75559 7.96386 2.8463 7.99266C3.16108 8.09281 3.63751 8.24412 3.76175 8.53681C3.8247 8.68521 3.79761 8.88049 3.68143 9.11652C3.67839 9.12296 3.67535 9.12926 3.67258 9.13588C3.64354 9.20375 3.37268 9.81789 2.81709 10.4656C2.50138 10.8339 2.15365 11.1417 1.7841 11.3808C1.33305 11.6726 0.844996 11.8634 0.333634 11.9477C0.132826 11.9807 -0.0105781 12.1598 0.000612196 12.3633C0.00404859 12.4219 0.0177942 12.4804 0.0416287 12.537C0.0418049 12.5374 0.0420255 12.5377 0.0422017 12.538C0.123398 12.7281 0.31165 12.8896 0.61771 13.0321C0.991704 13.206 1.55104 13.3522 2.28004 13.4667C2.31688 13.5368 2.35512 13.713 2.38159 13.8337C2.40931 13.9619 2.43821 14.0938 2.4794 14.2339C2.52385 14.3856 2.63915 14.567 2.93534 14.567C3.04759 14.567 3.17668 14.5416 3.32616 14.5126C3.54508 14.4696 3.84444 14.411 4.21808 14.411C4.42523 14.411 4.63992 14.4292 4.85602 14.4652C5.27257 14.5346 5.63167 14.7885 6.04717 15.0826C6.65532 15.5129 7.3437 16 8.39546 16C8.42414 16 8.45291 15.9991 8.48133 15.9971C8.51609 15.9987 8.55917 16 8.60464 16C9.6567 16 10.3449 15.5127 10.9524 15.0828L10.9534 15.0819C11.369 14.7882 11.7277 14.5346 12.1441 14.4652C12.3601 14.4293 12.5747 14.411 12.782 14.411C13.1389 14.411 13.4215 14.4565 13.6739 14.5058C13.8386 14.5382 13.9666 14.5539 14.0648 14.5539L14.0744 14.554H14.0843C14.3009 14.554 14.4601 14.435 14.5209 14.2267C14.5612 14.0896 14.59 13.9608 14.6185 13.8304C14.6432 13.7174 14.6828 13.5361 14.7196 13.4652C15.4491 13.3506 16.0082 13.2046 16.3823 13.0308C16.6876 12.889 16.8756 12.7276 16.9573 12.5383C16.9818 12.4816 16.9961 12.4227 16.9994 12.3628C17.0109 12.1597 16.8672 11.9802 16.6663 11.9472C14.3936 11.5723 13.3698 9.23479 13.3275 9.13548C13.3247 9.12895 13.3217 9.12247 13.3184 9.11616C13.2023 8.88005 13.1754 8.68499 13.2384 8.53633C13.3624 8.2439 13.8385 8.09259 14.1535 7.99248C14.2447 7.96373 14.3307 7.93638 14.4023 7.90807C14.7124 7.78547 14.934 7.65247 15.0803 7.50142C15.2549 7.32136 15.2889 7.14884 15.2868 7.03594C15.2815 6.76278 15.0729 6.52005 14.741 6.4012C14.6289 6.35481 14.5011 6.33033 14.371 6.33033C14.2824 6.33033 14.1512 6.3425 14.027 6.40054C13.7611 6.52508 13.523 6.59317 13.3185 6.60287C13.2098 6.59736 13.1335 6.57377 13.0841 6.55123C13.0903 6.44468 13.0972 6.33523 13.1043 6.22109L13.1072 6.17223C13.1801 5.01723 13.2706 3.57982 12.8905 2.72647C12.63 2.14201 12.2802 1.63935 11.8506 1.23182C11.4903 0.890303 11.0718 0.613483 10.6063 0.408857C9.79641 0.0531415 9.04137 0 8.66346 0Z"/></symbol>

  <symbol id="instagram2" viewBox="0 0 18 18"><path fill-rule="evenodd" clip-rule="evenodd" d="M9.00084 0C6.55657 0 6.24982 0.0106873 5.28981 0.0543748C4.33167 0.0982498 3.67766 0.249937 3.10541 0.4725C2.51346 0.702375 2.01133 1.00988 1.51108 1.51031C1.01045 2.01056 0.702945 2.51269 0.472317 3.10444C0.24919 3.67688 0.0973136 4.33106 0.0541881 5.28881C0.0112502 6.24881 0 6.55575 0 9C0 11.4443 0.0108749 11.7501 0.0543754 12.7101C0.0984383 13.6682 0.250128 14.3222 0.472505 14.8944C0.70257 15.4864 1.01007 15.9885 1.51052 16.4888C2.01058 16.9894 2.51271 17.2976 3.10428 17.5275C3.67691 17.7501 4.33111 17.9018 5.28906 17.9456C6.24907 17.9893 6.55563 18 8.99972 18C11.4442 18 11.75 17.9893 12.71 17.9456C13.6681 17.9018 14.3229 17.7501 14.8955 17.5275C15.4873 17.2976 15.9887 16.9894 16.4887 16.4888C16.9894 15.9885 17.2969 15.4864 17.5275 14.8946C17.7487 14.3222 17.9006 13.668 17.9456 12.7103C17.9888 11.7503 18 11.4443 18 9C18 6.55575 17.9888 6.249 17.9456 5.289C17.9006 4.33088 17.7487 3.67687 17.5275 3.10462C17.2969 2.51269 16.9894 2.01056 16.4887 1.51031C15.9881 1.00969 15.4875 0.702187 14.895 0.4725C14.3212 0.249937 13.6668 0.0982498 12.7087 0.0543748C11.7487 0.0106873 11.4431 0 8.99803 0H9.00084ZM8.19346 1.62188C8.43309 1.6215 8.70047 1.62188 9.00084 1.62188C11.4039 1.62188 11.6887 1.6305 12.6376 1.67363C13.5151 1.71375 13.9914 1.86038 14.3086 1.98356C14.7287 2.14669 15.0281 2.34169 15.3429 2.65669C15.6579 2.97169 15.8529 3.27169 16.0164 3.69169C16.1396 4.00856 16.2864 4.48481 16.3264 5.36231C16.3695 6.31106 16.3789 6.59606 16.3789 8.99794C16.3789 11.3998 16.3695 11.6848 16.3264 12.6336C16.2862 13.5111 16.1396 13.9873 16.0164 14.3042C15.8533 14.7242 15.6579 15.0233 15.3429 15.3381C15.0279 15.6531 14.7288 15.8481 14.3086 16.0112C13.9918 16.1349 13.5151 16.2812 12.6376 16.3213C11.6889 16.3644 11.4039 16.3738 9.00084 16.3738C6.59763 16.3738 6.31282 16.3644 5.36406 16.3213C4.48655 16.2808 4.01029 16.1342 3.69285 16.011C3.27285 15.8479 2.97284 15.6529 2.65784 15.3379C2.34284 15.0229 2.14784 14.7236 1.98433 14.3034C1.86114 13.9866 1.71433 13.5103 1.67439 12.6328C1.63127 11.6841 1.62264 11.3991 1.62264 8.99569C1.62264 6.59231 1.63127 6.30881 1.67439 5.36006C1.71452 4.48256 1.86114 4.00631 1.98433 3.68906C2.14746 3.26906 2.34284 2.96906 2.65784 2.65406C2.97284 2.33906 3.27285 2.14406 3.69285 1.98056C4.0101 1.85681 4.48655 1.71056 5.36406 1.67025C6.19431 1.63275 6.51607 1.6215 8.19346 1.61963V1.62188ZM13.805 3.11625C13.2088 3.11625 12.725 3.59944 12.725 4.19588C12.725 4.79213 13.2088 5.27588 13.805 5.27588C14.4013 5.27588 14.885 4.79213 14.885 4.19588C14.885 3.59963 14.4013 3.11587 13.805 3.11587V3.11625ZM9.00084 4.37813C6.44838 4.37813 4.37892 6.44756 4.37892 9C4.37892 11.5524 6.44838 13.6209 9.00084 13.6209C11.5533 13.6209 13.622 11.5524 13.622 9C13.622 6.44756 11.5531 4.37813 9.00066 4.37813H9.00084ZM9.00084 6C10.6576 6 12.0009 7.34306 12.0009 9C12.0009 10.6567 10.6576 12 9.00084 12C7.34389 12 6.00081 10.6567 6.00081 9C6.00081 7.34306 7.34389 6 9.00084 6Z"/></symbol>

   <symbol id="github" viewBox="0 0 18 18"><path fill-rule="evenodd" clip-rule="evenodd" d="M9.00007 0C4.03012 0 0 4.13136 0 9.22785C0 13.305 2.5788 16.764 6.1548 17.9841C6.6046 18.0696 6.76973 17.784 6.76973 17.5402C6.76973 17.3202 6.76138 16.5933 6.75751 15.8222C4.25368 16.3804 3.72534 14.7334 3.72534 14.7334C3.31593 13.6668 2.72604 13.3832 2.72604 13.3832C1.90947 12.8105 2.7876 12.8222 2.7876 12.8222C3.69136 12.8873 4.16724 13.7732 4.16724 13.7732C4.96995 15.1839 6.27269 14.7761 6.78627 14.5403C6.86705 13.9439 7.10029 13.5368 7.35768 13.3063C5.35864 13.073 3.25721 12.2818 3.25721 8.74589C3.25721 7.73842 3.60879 6.91524 4.18453 6.26901C4.09108 6.03658 3.78302 5.09803 4.27171 3.82696C4.27171 3.82696 5.02748 3.57895 6.74737 4.77285C7.46529 4.56839 8.23521 4.46585 9.00007 4.46234C9.76494 4.46585 10.5355 4.56839 11.2547 4.77285C12.9725 3.57895 13.7272 3.82696 13.7272 3.82696C14.2171 5.09803 13.9089 6.03658 13.8155 6.26901C14.3925 6.91524 14.7417 7.73842 14.7417 8.74589C14.7417 12.2902 12.6363 13.0706 10.6322 13.299C10.955 13.5854 11.2426 14.1469 11.2426 15.0079C11.2426 16.2426 11.2322 17.2363 11.2322 17.5402C11.2322 17.7858 11.3942 18.0735 11.8504 17.9829C15.4245 16.7614 18 13.3036 18 9.22785C18 4.13136 13.9705 0 9.00007 0Z"/></symbol>

  <symbol id="dropbox" viewBox="0 0 19 18"><path fill-rule="evenodd" clip-rule="evenodd" d="M9.51149 11.1287L13.4338 14.4439L15.1123 13.3277V14.579L9.51149 18L3.91065 14.579V13.3277L5.58917 14.4439L9.51149 11.1287ZM3.8646 6.86903L9.5 10.4135L5.58908 13.7384L0 10.0215L3.8646 6.86903ZM15.1355 6.86916L18.9999 10.0214L13.4109 13.7384L9.49993 10.4134L15.1355 6.86916ZM5.58909 1.8431e-05L9.49984 3.32478L3.86462 6.86906L1.80952e-05 3.717L5.58909 1.8431e-05ZM13.4109 0L19 3.71698L15.1354 6.86905L9.5 3.32477L13.4109 0Z"/></symbol>

  <symbol id="arrow-left-bold" viewBox="0 0 24 24" fill="none"><path d="M12 2.00316L2.00305 12.0001L12 21.9971" stroke-width="3" stroke-miterlimit="10" stroke-linecap="round" stroke-linejoin="round"/></symbol>

  <symbol id="arrow-right-bold" viewBox="0 0 24 24" fill="none"><path d="M12.003 21.9968L22 11.9999L12.003 2.00293" stroke-width="3" stroke-miterlimit="10" stroke-linecap="round" stroke-linejoin="round"/></symbol> 


<symbol id="logo" viewBox="0 0 700 150"> <!-- Adjusted viewBox to match the new SVG -->
  <defs>
    <style>
      .cls-1 {
        fill: #fff;
        stroke-width: 0px;
      }
    </style>
  </defs>
  <g>
  <path class="cls-1" d="M40.82,35.66v.3c0,.09-.01.17-.04.26-.32.6-.7,1.06-1.16,1.38-.46.32-1.03.47-1.72.47-.46,0-.79-.04-1.01-.13s-.49-.24-.84-.47c-.52.06-1.1.11-1.76.15-.66.04-1.32.11-1.98.21-.66.1-1.28.24-1.87.41-.59.17-1.08.43-1.48.77-.26,1.98-.39,3.95-.41,5.91-.01,1.96-.05,3.93-.11,5.91.23.6.39,1.27.47,2s.14,1.4.17,2c.2.34.36.69.47,1.05.11.36.23.72.34,1.1.11.37.25.73.41,1.07.16.34.37.66.62.95.23,0,.44.02.62.06.19.04.38.09.58.15v.26c0,.43.13.74.39.95.26.2.54.42.86.64.09.31.13.62.13.9,0,.49-.11.95-.32,1.38s-.57.73-1.05.9c-.29,0-.56-.04-.82-.11-.26-.07-.53-.11-.82-.11-.2,0-.42.03-.64.09-.14-.06-.27-.14-.37-.24-.1-.1-.21-.19-.32-.28-.11-.09-.24-.16-.37-.21-.13-.06-.29-.07-.49-.04-.14-.4-.37-.77-.69-1.12-.32-.34-.7-.49-1.16-.43.03-.12.04-.29.04-.52,0-.4-.08-.77-.24-1.12-.16-.34-.39-.62-.71-.82-.14-.66-.27-1.38-.39-2.17-.11-.79-.36-1.47-.73-2.04,0-.83-.09-1.63-.26-2.38-.17-.76-.33-1.54-.47-2.34.11-.46.17-.97.17-1.55,0-.4-.01-.79-.04-1.18-.03-.39-.04-.77-.04-1.14,0-.4.03-.79.09-1.18.06-.39.2-.77.43-1.14-.17-.29-.29-.58-.34-.88-.06-.3-.09-.61-.09-.92,0-.49.03-.96.09-1.42l.17-1.38c-.06-.03-.16-.04-.3-.04-.29,0-.53.06-.73.17l-.64.3c-.14-.03-.27-.04-.39-.04h-.39c-.43,0-.85.06-1.27.19-.42.13-.78.35-1.1.67-.97,0-1.95.09-2.92.28-.97.19-1.94.41-2.9.67-.96.26-1.91.54-2.86.84s-1.89.57-2.84.79c-.23,1.12-.4,2.24-.52,3.37-.11,1.13-.17,2.28-.17,3.46v1.03c0,.37.03.73.09,1.07.03.23.11.44.24.62.13.19.19.39.19.62,0,.2-.04.36-.13.47.2.34.5.64.9.9.43-.14.8-.21,1.12-.21.52,0,1,.12,1.46.37.46.24.95.41,1.46.49-.11.4-.29.79-.52,1.18-.23.39-.37.81-.43,1.27-.11.06-.22.09-.32.09s-.19,0-.28.02c-.09.01-.15.06-.19.15s-.04.26.02.52c-.4.2-.8.34-1.2.41-.4.07-.81.12-1.22.15-.42.03-.83.04-1.25.04s-.84.01-1.27.04c0-.17-.04-.31-.11-.41-.07-.1-.17-.17-.28-.21-.11-.04-.24-.09-.37-.15-.13-.06-.24-.13-.32-.21-.23-.2-.41-.47-.54-.79-.13-.33-.26-.67-.39-1.03-.13-.36-.27-.71-.41-1.05-.14-.34-.32-.66-.52-.95-.06-.63-.1-1.25-.13-1.85-.03-.6-.04-1.22-.04-1.85,0-1.17.04-2.33.13-3.46s.16-2.3.21-3.5c-.26-.26-.55-.37-.88-.34-.33.03-.65,0-.97-.09-.34-.43-.63-.91-.86-1.44s-.34-1.08-.34-1.65c0-.29.04-.59.13-.9.26-.09.54-.17.86-.26.31-.09.49-.32.52-.69.2.11.44.17.73.17s.57-.04.86-.13c.29-.09.57-.16.86-.21.11-.46.21-.91.28-1.35.07-.44.08-.91.02-1.4.4-.6.67-1.26.79-1.98s.22-1.4.28-2.06v-.6c0-.2.01-.4.04-.6.06-.31.14-.67.26-1.07.11-.4.21-.77.3-1.12.14-.54.24-1.06.28-1.55.04-.49.06-.99.06-1.5v-.17c0-.14-.06-.25-.17-.32-.11-.07-.17-.18-.17-.32l.04-.09c.11-.92.25-1.83.41-2.73.16-.9.38-1.8.67-2.69-.23-.66-.34-1.4-.34-2.23,0-1.09.17-2.13.52-3.14-.17-.46-.26-.9-.26-1.33,0-.34.02-.69.06-1.03s.05-.69.02-1.03c.29-.14.52-.34.71-.6.19-.26.41-.47.67-.64.86-.03,1.58.26,2.17.86.59.6.88,1.33.88,2.19,0,.66-.19,1.29-.56,1.89.11.54.17,1.17.17,1.89,0,1.06-.07,2.12-.21,3.18-.14,1.06-.19,2.13-.13,3.22-.17.4-.25.89-.24,1.46.01.57,0,1.06-.06,1.46-.06.4-.14.81-.26,1.22-.11.42-.19.82-.21,1.22-.03.66-.05,1.32-.06,1.98-.01.66-.09,1.29-.24,1.89-.06.23-.14.42-.24.58-.1.16-.18.34-.24.54-.11.6-.15,1.21-.11,1.83s.04,1.24-.02,1.87c-.03.2-.08.4-.15.6-.07.2-.11.42-.11.64,0,.11.03.26.09.43,2.61-.23,5.2-.62,7.78-1.16s5.17-1.02,7.78-1.42c.2-.37.3-.76.3-1.16,0-.23-.04-.46-.13-.69.29-.95.51-1.9.67-2.86.16-.96.29-1.91.41-2.86.11-.95.21-1.9.3-2.86.09-.96.2-1.91.34-2.86l.26-1.46c.09-.49.2-.96.34-1.42.06-.17.12-.34.19-.52.07-.17.11-.33.11-.47s-.08-.24-.24-.3c-.16-.06-.24-.13-.24-.21,0-.06.02-.09.06-.11.04-.01.08,0,.11.02.14-.26.23-.53.26-.82.03-.29.05-.57.06-.86.01-.29.05-.57.11-.84.06-.27.17-.52.34-.75-.03-.2-.09-.39-.17-.56s-.13-.37-.13-.6c-.03-.03-.03-.06,0-.09.06-.26.09-.48.11-.67.01-.19.02-.41.02-.67,0-.34.16-.62.47-.82-.14-.49-.24-1.02-.3-1.59-.06-.57-.09-1.13-.09-1.68,0-.74.18-1.37.54-1.87.36-.5.95-.75,1.78-.75.43,0,.84.09,1.22.26s.71.42.97.73c.14.66.21,1.27.21,1.85,0,.4-.02.78-.06,1.14-.04.36-.06.74-.06,1.14,0,.32.03.61.09.88.06.27.11.55.17.84-.26.4-.44.85-.56,1.33-.11.49-.19.99-.24,1.5s-.07,1.04-.09,1.57c-.01.53-.04,1.01-.06,1.44-.09.95-.22,1.88-.41,2.79-.19.92-.39,1.83-.62,2.75.09.32.13.6.13.86,0,.52-.07,1.02-.21,1.53-.14.5-.19,1-.13,1.48-.2.52-.33,1.04-.39,1.57-.06.53-.1,1.08-.13,1.65l-.09,1.68c-.03.54-.13,1.07-.3,1.59.06.14.16.22.32.24.16.01.21.14.15.37.66-.2,1.36-.29,2.11-.28.74.01,1.45.02,2.11.02.43,0,.86,0,1.29-.02s.86-.06,1.29-.15c.43-.11.87-.25,1.31-.41.44-.16.88-.24,1.31-.24.6,0,1.06.21,1.38.64.06.32.1.63.13.95.03.32.04.63.04.95Z"/>
  <path class="cls-1" d="M76.4,55.95c0,.34-.1.64-.3.88-.2.24-.44.44-.73.6-.29.16-.59.3-.9.43-.32.13-.59.26-.82.41-.66-.14-1.35-.27-2.06-.37-.72-.1-1.36-.29-1.93-.58-1.17-1.29-2-2.77-2.47-4.45s-.78-3.34-.92-5.01c-.06-.49-.09-.97-.09-1.44s-.03-.95-.09-1.44c-.06-.43-.32-.69-.77-.77.34-.06.59-.24.73-.54.14-.3.23-.64.26-1.03.03-.39.04-.77.02-1.16-.01-.39,0-.71.06-.97-.23.09-.43.28-.6.58s-.33.64-.47,1.01c-.14.37-.28.74-.41,1.1s-.25.64-.37.84c-1.2,2.06-2.6,3.94-4.19,5.63-1.59,1.69-3.23,3.37-4.92,5.03-.49.17-.95.39-1.38.67-.43.27-.83.57-1.2.88-1.09.31-2.12.47-3.09.47-.89,0-1.76-.12-2.62-.37-.86-.24-1.63-.65-2.32-1.22l-1.59-3.61c-.09-.23-.19-.47-.3-.71-.11-.24-.2-.48-.26-.71-.06-.26-.08-.54-.06-.84.01-.3.02-.57.02-.79,0-1,.04-2.01.11-3.03.07-1.02.18-2.03.32-3.03.06-.4.14-.82.26-1.25.11-.43.2-.84.26-1.25v-.47c0-.14-.01-.32-.04-.54-.03-.21-.11-.35-.26-.41.69-1.66,1.03-3.39,1.03-5.2,0-.29,0-.57-.02-.84-.01-.27-.04-.55-.06-.84.2-.2.33-.44.39-.71.06-.27.09-.56.09-.86s0-.59.02-.88c.01-.29.09-.56.24-.82-.03-.31-.05-.62-.06-.92-.01-.3-.02-.61-.02-.92,0-1.92.15-3.82.45-5.69.3-1.88.45-3.77.45-5.69v-1.8c0-.4,0-.82.02-1.25.01-.43.07-.84.17-1.25.1-.4.25-.78.45-1.14.2-.36.49-.67.86-.92.06,0,.11,0,.15-.02.04-.01.09-.02.15-.02.26,0,.46.06.6.19.14.13.36.18.64.15.52.75.92,1.53,1.22,2.36.3.83.45,1.7.45,2.62,0,.69-.1,1.36-.3,2.02-.2.66-.3,1.35-.3,2.06,0,.29.01.57.04.86.03.29.04.57.04.86s-.04.57-.11.84c-.07.27-.21.51-.41.71.06.57.1,1.15.13,1.74.03.59.04,1.17.04,1.74,0,1.63-.1,3.27-.3,4.9-.2,1.63-.43,3.27-.69,4.9s-.49,3.27-.69,4.9c-.2,1.63-.3,3.28-.3,4.94v1.25c0,.4.03.82.09,1.25-.17.4-.26.83-.26,1.29,0,.63.14,1.25.43,1.85.29.6.63,1.15,1.03,1.63.14.03.28.05.41.06.13.01.26.02.41.02.74,0,1.41-.16,2-.47.59-.32,1.15-.7,1.68-1.16.53-.46,1.05-.93,1.57-1.42s1.07-.89,1.68-1.2c.92-1.17,1.78-2.36,2.58-3.54.8-1.19,1.58-2.43,2.32-3.72.06-.69.24-1.38.54-2.08s.62-1.4.95-2.08c.33-.69.63-1.36.9-2.02.27-.66.41-1.29.41-1.89,0-.31-.1-.53-.3-.64.29-.74.5-1.52.64-2.32.14-.8.26-1.6.37-2.41.1-.8.21-1.6.32-2.38.11-.79.29-1.57.52-2.34,0-.17,0-.34-.02-.52-.01-.17-.02-.34-.02-.52,0-1.32.13-2.61.39-3.89.26-1.27.39-2.57.39-3.89,0-.31-.02-.61-.06-.88-.04-.27-.06-.54-.06-.79,0-.23.08-.37.24-.43.16-.06.24-.21.24-.47,0-.23-.02-.47-.06-.73s-.06-.53-.06-.82c0-.89.09-1.76.26-2.62s.26-1.73.26-2.62v-.52c0-.2-.03-.39-.09-.56.2-.31.47-.52.82-.62.34-.1.67-.15.99-.15.52,0,.95.06,1.29.17.54,1.46,1,2.96,1.38,4.49.37,1.53.67,3.09.9,4.66.06.37.14.77.24,1.18.1.42.15.82.15,1.22,0,.09-.02.19-.06.3-.04.11-.08.23-.11.34-.03.23-.05.46-.06.69-.01.23-.02.46-.02.69,0,.69.04,1.38.13,2.06s.13,1.39.13,2.11c0,.8-.11,1.57-.32,2.3s-.38,1.5-.49,2.3c-.11.83-.16,1.65-.13,2.45.03.8-.03,1.62-.17,2.45-.06.34-.14.68-.26,1.01-.11.33-.17.68-.17,1.05,0,.26.02.52.06.77s.06.53.06.82c0,.43-.1.76-.3.99.06.23.1.44.13.62.03.19.09.39.17.62-.14.17-.24.36-.3.56-.06.2-.09.42-.09.64,0,.29.01.55.04.79.03.24.04.49.04.75,0,.6-.09,1.17-.28,1.72-.19.54-.31,1.1-.37,1.68-.03.4-.04.79-.02,1.18.01.39.02.78.02,1.18,0,.43-.02.84-.06,1.25s-.17.8-.37,1.2c.06.17.13.34.21.52s.21.3.39.39c0,.89.12,1.78.37,2.69.24.9.58,1.75,1.01,2.56.09.17.21.3.39.39s.33.18.47.28c.14.1.26.22.34.37.09.14.1.36.04.64.06.03.14.04.26.04.23,0,.42-.06.58-.17.16-.12.35-.17.58-.17h.3c.26.26.52.56.79.9.27.34.41.72.41,1.12Z"/>
  <path class="cls-1" d="M124.05,61.96c0,.26-.09.49-.28.69-.19.2-.41.37-.67.49s-.52.25-.79.37c-.27.11-.51.21-.71.3-.32-.17-.64-.29-.97-.34-.33-.06-.62-.2-.88-.43h-.3c-.46,0-.82.06-1.07.17-.4-.14-.73-.35-.99-.62-.26-.27-.5-.56-.73-.86-.23-.3-.46-.59-.69-.88-.23-.29-.52-.53-.86-.73-.52-1.43-.97-2.88-1.38-4.34-.4-1.46-.7-2.95-.9-4.47.06-.14.1-.3.13-.47.03-.17.04-.33.04-.47,0-.11-.02-.24-.06-.37s-.14-.21-.28-.24c.14-.23.24-.49.28-.79s.06-.58.06-.84c0-.57-.06-1.05-.17-1.42.17-.14.24-.38.21-.71-.03-.33.04-.57.21-.71-.14-.49-.21-.96-.21-1.42,0-.63.08-1.25.24-1.85.16-.6.24-1.22.24-1.85,0-.14,0-.29-.02-.43-.01-.14-.04-.29-.06-.43.14-.46.28-.92.41-1.4s.19-.95.19-1.44c0-.34-.06-.63-.17-.86.37-1.32.64-2.63.79-3.93.16-1.3.31-2.63.45-3.97-.03-.06-.06-.1-.09-.13-.03-.03-.04-.07-.04-.13,0-.14.08-.26.24-.34.16-.09.22-.24.19-.47-.34.34-.62.75-.84,1.2-.21.46-.42.92-.6,1.38-.19.46-.39.91-.6,1.35-.21.44-.49.84-.84,1.18-.03.32-.12.62-.28.9-.16.29-.24.6-.24.95-.03,0-.06,0-.09-.02-.03-.01-.07-.02-.13-.02-.11,0-.19.07-.24.21s-.14.19-.28.13c-.66,1.29-1.38,2.55-2.17,3.78-.79,1.23-1.81,2.22-3.07,2.96-.23-.09-.44-.13-.64-.13-.37,0-.74.11-1.1.32-.36.21-.59.32-.71.32-.29,0-.64-.15-1.05-.45-.42-.3-.84-.47-1.27-.49-.46-.32-.84-.64-1.14-.97s-.75-.52-1.35-.58c-.4-.6-.79-1.17-1.18-1.72s-.76-1.08-1.12-1.61c-.36-.53-.67-1.1-.95-1.7-.27-.6-.48-1.27-.62-2.02.03-.06.04-.11.04-.17,0-.17-.08-.24-.24-.21-.16.03-.24-.06-.24-.26v-.3c0-.23-.04-.44-.11-.62-.07-.19-.09-.39-.06-.62-.2-.31-.36-.64-.47-.99-.11-.34-.32-.64-.6-.9v-.39c0-.17,0-.34-.02-.49-.01-.16-.06-.3-.13-.43-.07-.13-.18-.21-.32-.24-.03-1.03-.24-2.08-.62-3.16s-.74-2.11-1.05-3.12c-.23.75-.4,1.5-.52,2.26-.11.76-.17,1.53-.17,2.3v.73c0,.23.03.46.09.69-.09.14-.21.24-.37.3-.16.06-.25.17-.28.34-.03.14-.04.29-.02.43.01.14,0,.29-.02.43-.06.69-.14,1.35-.26,1.98-.17.95-.37,1.9-.6,2.86-.23.96-.34,1.94-.34,2.94,0,.06,0,.14.02.24.01.1.02.18.02.24-.46.4-.7.9-.73,1.5-.03.6-.1,1.17-.21,1.72-.14.8-.32,1.6-.52,2.38-.2.79-.37,1.6-.52,2.43-.09.46-.16.91-.21,1.35-.06.44-.11.9-.17,1.35-.03.26-.12.47-.28.64-.16.17-.27.37-.32.6-.03.2-.04.42-.02.67.01.24.02.47.02.67,0,.34-.03.67-.09.97-.06.3-.23.57-.52.79.06.74.19,1.38.39,1.91.2.53.43,1.12.69,1.78h1.07v.17c0,.29.05.54.15.77.1.23.31.33.62.3-.03.11-.04.26-.04.43,0,.26.05.49.15.71.1.21.18.45.24.71-.57.95-1.19,1.65-1.85,2.11-.66.46-1.56.69-2.71.69h-.69c-.14-.46-.32-.9-.52-1.33-.2-.43-.39-.86-.58-1.29-.19-.43-.34-.87-.47-1.31-.13-.44-.19-.91-.19-1.4,0-.12.01-.22.04-.32.03-.1.04-.21.04-.32,0-.14-.06-.23-.17-.26-.11-.03-.17-.17-.17-.43,0-.2,0-.39-.02-.56-.01-.17-.02-.36-.02-.56,0-.95.07-1.88.21-2.81.14-.93.24-1.87.3-2.81.14-.14.21-.33.21-.56s.07-.42.21-.56v-.3c0-.52.06-1.03.17-1.55.11-.52.24-1.02.39-1.5.14-.49.27-.99.39-1.5.11-.52.17-1.03.17-1.55v-.69c0-.2.09-.29.28-.28.19.01.29-.09.32-.32.06-.4.09-.79.11-1.18.01-.39.05-.78.11-1.18.14-.77.3-1.55.47-2.34.17-.79.26-1.58.26-2.38v-.13c0-.09.07-.26.21-.54.14-.27.21-.54.21-.79,0-.2-.04-.39-.13-.56.03.03.09.04.17.04.11,0,.19-.04.24-.11.04-.07.11-.14.19-.19-.09-.11-.13-.23-.13-.34,0-.14.02-.28.06-.41s.06-.26.06-.41c0-.2-.1-.34-.3-.43.34-.63.59-1.3.75-2.02.16-.72.27-1.45.34-2.19.07-.74.14-1.5.19-2.26.06-.76.19-1.48.39-2.17-.06-.17-.09-.36-.11-.56-.01-.2-.02-.39-.02-.56,0-.11-.01-.24-.04-.37-.03-.13-.01-.25.04-.37,0-.06.01-.13.04-.21l.09-.26c.06-.2.09-.41.11-.62.01-.21.04-.44.06-.67.06-.66.08-1.33.06-2.02-.01-.69,0-1.38.06-2.06-.09-.11-.17-.21-.26-.28-.09-.07-.14-.18-.17-.32.23-.4.48-.78.75-1.14.27-.36.64-.64,1.1-.84.09.32.31.47.69.47.17,0,.39-.04.64-.13s.43-.2.52-.34c.49.17.98.25,1.48.24.5-.01.97.11,1.4.37.09.43.2.87.34,1.33.14.46.34.87.6,1.25.06.37.11.82.17,1.35.06.53.11,1.07.17,1.63.06.56.14,1.09.26,1.59.11.5.27.9.47,1.18.03.52.11,1.03.26,1.55.14.52.3,1.01.47,1.48s.32.91.45,1.31c.13.4.19.73.19.99,0,.23-.04.38-.11.45s-.14.19-.19.37c.11.32.27.58.47.79.2.21.42.47.64.75.43,1.63.99,3.22,1.68,4.77s1.52,3.04,2.49,4.47c.26.03.47.1.62.21.16.11.41.14.75.09v.3c0,.29.06.49.17.6.26.17.56.26.9.26.37,0,.67-.11.88-.32s.42-.47.62-.75c.2-.29.4-.56.6-.82.2-.26.47-.43.82-.52v-.09c0-.23.05-.42.15-.58.1-.16.15-.34.15-.54.31-.23.56-.52.73-.86s.33-.69.47-1.05c.14-.36.31-.69.49-1.01.19-.31.44-.57.75-.77.4-1.23.89-2.38,1.46-3.44.57-1.06,1.17-2.13,1.8-3.22,0-.09-.01-.18-.04-.28-.03-.1-.04-.19-.04-.28,0-.03.03-.16.09-.39.14-.29.27-.56.39-.82.11-.26.21-.54.3-.86.29-.89.55-1.76.79-2.62.24-.86.61-1.68,1.1-2.45v-1.07c.52-1.03.88-2.12,1.1-3.27.21-1.15.48-2.26.79-3.35.06-.31.16-.64.32-.97.16-.33.35-.57.58-.71-.09-.17-.13-.34-.13-.52,0-.23.04-.44.11-.62.07-.19.14-.38.19-.58-.09-.2-.13-.46-.13-.77,0-.4.11-.78.34-1.14.23-.36.57-.59,1.03-.71.29.09.53.23.73.43.2.2.39.41.58.62.19.21.39.39.6.52s.49.17.84.11c.23.43.39.88.47,1.35s.13.95.13,1.44c0,.66-.06,1.34-.17,2.04-.11.7-.16,1.41-.13,2.13-.23.46-.39.95-.49,1.48-.1.53-.19,1.07-.28,1.61-.09.54-.19,1.07-.3,1.59-.11.52-.32,1-.6,1.46-.09,1.29-.18,2.55-.28,3.78-.1,1.23-.25,2.46-.45,3.7l-.39,2.45c-.06.2-.11.42-.17.67-.06.24-.09.45-.09.62s.01.35.04.54c.03.19.11.32.26.41-.2.29-.34.63-.43,1.03-.09.4-.17.83-.26,1.29l-.21,1.33c-.06.43-.17.82-.34,1.16v.47c0,1.15-.2,2.32-.6,3.52v.21c0,.14,0,.26-.02.37-.01.1-.02.22-.02.37,0,.2.06.36.17.47-.23.75-.44,1.51-.64,2.3-.2.79-.34,1.6-.43,2.43-.09,1.12-.1,2.26-.04,3.42.06,1.16-.09,2.28-.43,3.37.17.52.29,1.07.34,1.68l.17,1.8c.06.6.15,1.18.28,1.74s.38,1.02.75,1.4c.03.06.04.14.04.26,0,.23-.06.4-.17.52.06.29.16.53.3.73.14.2.29.39.43.58.14.19.26.39.37.62.1.23.15.52.15.86.23.31.59.56,1.07.73.49.17.98.34,1.48.52.5.17.94.39,1.31.67.37.27.56.67.56,1.18Z"/>
  <path class="cls-1" d="M160.92,61.06c-.09.49-.28.84-.58,1.05s-.58.52-.84.92h-.17c-.29,0-.57.03-.84.09-.27.06-.55.13-.84.21-.14-.06-.31-.1-.52-.13-.2-.03-.33-.13-.39-.3-.23.11-.54.17-.95.17-.66,0-1.28-.19-1.87-.56-.59-.37-1.2-.66-1.83-.86-.17-.34-.38-.65-.62-.92-.24-.27-.49-.54-.73-.79s-.48-.53-.71-.82c-.23-.29-.42-.63-.56-1.03-.06-.17-.13-.27-.21-.3-.09-.03-.21-.03-.39,0,.03-.32,0-.59-.11-.82-.1-.23-.32-.37-.67-.43,0-.37-.06-.69-.17-.95s-.25-.48-.41-.67c-.16-.19-.33-.38-.52-.58-.19-.2-.34-.44-.45-.73-.26-.06-.51-.09-.75-.11-.24-.01-.51-.02-.79-.02-1.38,0-2.71.26-4,.77-.14.06-.29.13-.45.21-.16.09-.31.16-.45.21-.06,0-.11,0-.15.02-.04.01-.09.02-.15.02-.2,0-.39-.04-.56-.11-.17-.07-.36-.11-.56-.11-.09,0-.18.02-.28.06-.1.04-.19.08-.28.11-.43.14-.83.23-1.2.26-1.17.23-2.41.4-3.72.52-1.3.11-2.5.42-3.59.9-.23.11-.37.29-.43.54-.06.24-.07.48-.04.71-.32.23-.55.53-.71.9-.16.37-.3.77-.43,1.18-.13.42-.27.82-.41,1.22-.14.4-.34.74-.6,1.03.09.17.13.36.13.56,0,.43-.14.86-.43,1.29-.29.43-.5.84-.64,1.25-.14.4-.26.79-.34,1.18s-.21.74-.39,1.05c-.17.31-.41.57-.71.77-.3.2-.72.3-1.27.3-.52,0-.96-.1-1.33-.3-.37-.2-.67-.46-.9-.77-.23-.32-.42-.69-.56-1.12-.14-.43-.26-.86-.34-1.29.32-.63.62-1.17.9-1.63.29-.46.5-1.05.64-1.76.52-.37.9-.82,1.14-1.35.24-.53.38-1.11.41-1.74.32-.2.54-.47.67-.79.13-.33.21-.68.24-1.05-.69-.06-1.41-.12-2.17-.17-.76-.06-1.47-.2-2.13-.43,0-.06,0-.12.02-.17.01-.06.02-.12.02-.17,0-.37-.09-.71-.26-1.01s-.26-.62-.26-.97v-.34c.23-.23.44-.47.62-.71.19-.24.38-.47.58-.67.2-.2.43-.37.69-.49s.59-.19.99-.19c.54,0,1.07.04,1.59.11.52.07,1.05.11,1.59.11.37,0,.76-.04,1.16-.13.63-1.29,1.19-2.6,1.68-3.93.49-1.33.86-2.69,1.12-4.06.2-.29.39-.62.56-1.01s.31-.79.41-1.22c.1-.43.17-.85.21-1.27s.06-.79.06-1.14c.31-.37.54-.83.67-1.38s.24-1.11.32-1.7.18-1.17.28-1.74c.1-.57.29-1.07.58-1.5v-.39c.03-.43-.01-.82-.13-1.16.14-.06.23-.19.26-.39.03-.2.09-.37.17-.52.03-1.32.17-2.61.43-3.89.26-1.27.47-2.56.64-3.85v-.13c0-.14-.05-.22-.15-.24-.1-.01-.15-.09-.15-.24,0-.26.04-.6.11-1.03.07-.43.12-.79.15-1.07.17-1.55.26-3.08.26-4.6,0-1.29-.04-2.56-.13-3.82-.09-1.26-.17-2.54-.26-3.82l.34-.52c.11-.17.21-.34.3-.52.29-.11.52-.24.71-.37.19-.13.44-.19.75-.19.09,0,.16,0,.21.02.06.01.11.02.17.02.17.11.31.27.41.47.1.2.2.39.3.56.1.17.24.32.41.43.17.11.42.14.73.09.14.8.54,1.22,1.2,1.25.14.4.32.8.54,1.2.21.4.51.72.88.95-.03.11-.04.27-.04.47,0,.4.09.79.28,1.16.19.37.42.72.71,1.03v.09c0,.32-.12.53-.34.64.26.29.44.63.56,1.03.12.4.21.81.3,1.22.09.42.19.81.32,1.18.13.37.35.66.67.86v.13c0,.14-.05.23-.15.26-.1.03-.15.11-.15.26.52.95.87,1.98,1.07,3.09s.46,2.19.77,3.22c.12.11.25.19.41.21.16.03.28.1.37.21-.17.11-.26.32-.26.6s-.07.5-.21.64c.23.2.34.49.32.88s.09.67.32.84v.17c0,.11-.03.21-.09.28-.06.07-.09.17-.09.28v.17c.23,1,.41,2.01.54,3.01.13,1,.27,2,.41,3.01s.3,2,.47,2.99.42,1.96.73,2.9c.03.03.04.07.04.13,0,.14-.06.22-.17.24s-.17.09-.17.24.05.31.15.49.21.34.32.45c-.03.11-.04.29-.04.52,0,.43.08.84.24,1.25s.33.79.52,1.18.35.79.49,1.22.2.89.17,1.38c.17.26.39.47.67.64s.55.33.84.47.55.32.79.52.41.47.49.82c-.23.2-.39.45-.47.75s-.24.57-.47.79c.2.49.44.94.71,1.35.27.42.55.82.84,1.22l.9,1.2c.31.4.59.83.82,1.29.31,0,.54.09.69.26s.37.24.69.21c.12.23.16.49.13.77.57-.2,1.15-.3,1.72-.3.31,0,.61.01.88.04.27.03.55.04.84.04.34,0,.64-.04.9-.13.12.17.2.37.26.58s.1.44.13.67l.13.69c.06.23.14.43.26.6ZM144.72,49.16c-.4-1.98-.81-3.95-1.22-5.91s-.78-3.95-1.1-5.95c-.17-1.06-.3-2.12-.39-3.18s-.19-2.11-.32-3.16c-.13-1.05-.3-2.08-.52-3.12s-.52-2.05-.92-3.05v-.09c0-.09.03-.16.09-.21.06-.06.09-.16.09-.3v-.17c-.37-.26-.63-.62-.77-1.1-.14-.47-.27-.97-.37-1.5-.1-.53-.23-1.05-.39-1.55-.16-.5-.42-.92-.79-1.27-.14,1.66-.29,3.32-.45,4.96-.16,1.65-.27,3.3-.32,4.96-.29.17-.47.46-.56.86-.09.4-.13.76-.13,1.07,0,.23.01.47.04.71.03.24.09.49.17.75-.52,1.29-.89,2.61-1.12,3.97-.23,1.36-.49,2.71-.77,4.06-.03.09-.08.28-.15.58-.07.3-.15.61-.24.92s-.16.59-.21.84c-.06.24-.09.38-.09.41-.03.2-.04.4-.02.6.01.2.02.4.02.6l-.64.64c-.11,1.09-.32,2.14-.62,3.16s-.61,2.06-.92,3.12c.2.03.39.05.58.06.19.01.38.02.58.02.92,0,1.84-.06,2.77-.19.93-.13,1.85-.25,2.77-.37.31-.06.64-.11.99-.15s.67-.06.99-.06c.14-.03.31-.04.52-.02s.37,0,.52-.02c.23-.06.38-.15.45-.28s.22-.21.45-.24c.17.09.37.13.6.13.26,0,.5-.06.73-.17s.46-.24.69-.39Z"/>
  <path class="cls-1" d="M192.11,11.09c-.17.29-.29.59-.37.9-.07.32-.12.63-.15.95h-.3c-.23,0-.43-.04-.6-.11-.17-.07-.37-.14-.6-.19.11,1.09.19,2.19.21,3.31.03,1.12.04,2.22.04,3.31,0,1.38-.01,2.74-.04,4.1-.03,1.36-.04,2.73-.04,4.1,0,.66-.04,1.31-.11,1.96-.07.64-.25,1.27-.54,1.87.06.49.1.95.13,1.4.03.44.04.91.04,1.4,0,1.35-.08,2.69-.24,4.02-.16,1.33-.35,2.66-.58,3.97-.09.52-.17,1.04-.24,1.57-.07.53-.18,1.04-.32,1.53-.06.14-.14.29-.24.43-.1.14-.18.29-.24.43-.34.75-.72,1.48-1.14,2.21-.42.73-.91,1.4-1.48,2-.43.03-.85.14-1.25.34-.4.2-.77.3-1.12.3-.32,0-.57-.16-.77-.47l-.43.17c-.14.06-.3.1-.47.13-.97-.4-1.9-.89-2.77-1.46-.87-.57-1.6-1.32-2.17-2.23h-.17c-.26,0-.44-.06-.56-.17-.14-.14-.29-.32-.45-.54-.16-.21-.29-.41-.41-.58-.34-.54-.72-1.09-1.12-1.63-.4-.54-.87-1-1.42-1.38-.23-.86-.57-1.6-1.03-2.21-.46-.62-.93-1.28-1.42-2-.37-1.43-1.06-2.76-2.06-4,.14-.14.21-.24.21-.3,0-.14-.05-.26-.15-.37-.1-.1-.15-.21-.15-.32s.03-.2.09-.26c-.37-.4-.68-.85-.92-1.35-.24-.5-.47-1.01-.69-1.53s-.44-1.03-.69-1.55c-.24-.52-.54-.99-.88-1.42-.32.2-.51.44-.58.73-.07.29-.11.59-.11.9,0,.23,0,.46.02.69.01.23.02.46.02.69,0,.57-.06,1.13-.19,1.68-.13.54-.22,1.1-.28,1.68-.03.4-.04.84-.02,1.33.01.49,0,.97-.04,1.46s-.12.96-.24,1.42c-.12.46-.32.84-.6,1.16-.17,1.63-.39,3.27-.64,4.9s-.5,3.27-.73,4.9c-.06.29-.12.64-.17,1.07-.06.43-.12.87-.19,1.31-.07.44-.13.87-.17,1.29-.04.42-.06.75-.06,1.01,0,.29.07.57.21.84.14.27.21.54.21.79,0,.2-.06.32-.19.37s-.21.15-.24.32c.2.63.3,1.35.3,2.15,0,.23-.01.46-.04.71-.03.24-.07.48-.13.71-.06.14-.16.28-.3.41-.14.13-.21.25-.21.37s.06.2.17.26c-.17.17-.39.29-.64.34-.26.06-.44.21-.56.47-.29-.23-.57-.44-.86-.62-.29-.19-.56-.39-.82-.62l-.13-.04c-.2,0-.37.06-.49.19s-.29.19-.49.19c-.06,0-.11,0-.15-.02-.04-.01-.09-.02-.15-.02l-.26-1.12c-.09-.37-.2-.72-.34-1.03.23-.6.38-1.28.45-2.04.07-.76.15-1.53.24-2.3s.21-1.51.39-2.21c.17-.7.49-1.31.95-1.83,0-.23-.08-.39-.24-.47-.16-.09-.24-.27-.24-.56,0-.06.02-.16.06-.3s.09-.3.13-.47.09-.34.13-.49.08-.28.11-.37c.23-1.12.41-2.26.54-3.44s.48-2.26,1.05-3.27c-.03-.11-.04-.29-.04-.52,0-.49.05-.96.15-1.42.1-.46.15-.93.15-1.42,0-.4-.04-.77-.13-1.12.09-.32.21-.62.37-.92.16-.3.24-.61.24-.92,0-.29-.1-.49-.3-.6.14-.11.24-.24.28-.39s.07-.29.09-.43c.01-.14.04-.28.09-.41s.15-.24.32-.32c-.03-.29-.05-.56-.06-.82-.01-.26-.02-.53-.02-.82,0-1.06.06-2.11.17-3.16.11-1.05.17-2.11.17-3.2s-.09-2.09-.26-3.09l.47-.95c-.29-.23-.47-.6-.56-1.12s-.14-1.07-.17-1.68c-.03-.6-.08-1.2-.15-1.78-.07-.59-.24-1.07-.49-1.44v-.39c0-.46-.03-.9-.09-1.33-.06-.43-.09-.86-.09-1.29v-.39c.14-.06.25-.16.32-.3.07-.14.12-.29.15-.43h.17c.34,0,.69-.03,1.03-.09.34-.06.69-.09,1.03-.09h.56c.34.26.64.56.9.9s.57.66.95.95v.77c.26.34.46.72.6,1.12.14.4.29.82.45,1.25.16.43.32.85.49,1.25.17.4.42.75.73,1.03-.06.29-.09.52-.09.69,0,.37.04.75.11,1.12.07.37.12.73.15,1.07.11.14.21.32.3.54s.23.35.43.41c.14,1.12.44,2.18.88,3.18.44,1,.77,2.05.97,3.14.23.23.4.51.52.84.11.33.24.65.37.97.13.32.27.61.43.88.16.27.39.47.71.58.17.69.39,1.38.64,2.06s.66,1.27,1.2,1.76c0,.57.09,1.07.28,1.48.19.42.4.8.64,1.16.24.36.46.71.67,1.05.2.34.33.72.39,1.12.4.6.87,1.16,1.4,1.68.53.52,1.07,1.01,1.63,1.48s1.11.95,1.65,1.44c.54.49,1.04,1,1.5,1.55.31.03.58.09.79.19s.46.18.75.24c.2-.14.37-.32.49-.54s.25-.44.37-.67c.11-.23.24-.45.37-.67s.29-.41.49-.58c0-.06,0-.11-.02-.15-.01-.04-.02-.09-.02-.15,0-.32.05-.57.15-.75.1-.19.22-.39.37-.62v-1.12c.23-.43.39-.89.47-1.38s.13-.97.13-1.46c0-.4-.01-.81-.04-1.22-.03-.42-.04-.84-.04-1.27,0-.26.01-.52.04-.79.03-.27.09-.52.17-.75.06-.06.16-.15.3-.28.14-.13.21-.21.21-.24,0-.14-.04-.29-.13-.43-.09-.14-.13-.29-.13-.43,0-.2.09-.36.26-.47v-.26c0-.14-.02-.28-.06-.41s-.14-.22-.28-.28c.14-.17.24-.38.3-.62.06-.24.09-.5.11-.77.01-.27.01-.54,0-.79-.01-.26-.02-.5-.02-.73,0-.26.01-.53.04-.82.03-.29.14-.53.34-.73-.09-.34-.14-.68-.17-1.01-.03-.33-.04-.67-.04-1.01,0-.6.03-1.2.09-1.8.06-.6.09-1.22.09-1.85,0-.23-.01-.47-.04-.71-.03-.24-.04-.48-.04-.71s.05-.34.15-.32c.1.01.15-.05.15-.19,0-.2-.02-.4-.06-.6-.04-.2-.08-.4-.11-.6-.06-.49-.1-.98-.13-1.48-.03-.5-.04-1.01-.04-1.53,0-.31,0-.64.02-.97.01-.33.06-.65.15-.97-.17-.26-.28-.51-.32-.75-.04-.24-.08-.47-.11-.67l-.09-.64c-.03-.23-.12-.46-.26-.69-.03-.03-.04-.11-.04-.26,0-.23.06-.4.17-.52-.14-.49-.34-.96-.58-1.42-.24-.46-.39-.96-.45-1.5-.32-.17-.55-.45-.71-.84-.16-.39-.24-.74-.24-1.05,0-.37.1-.74.3-1.1.2-.36.52-.54.95-.54.17,0,.34.05.49.15.16.1.31.21.47.34.16.13.31.24.47.34.16.1.32.15.49.15.11,0,.29-.03.52-.09.31.43.64.82.97,1.18.33.36.67.72,1.01,1.1,0,.49.09.93.26,1.33.17.4.36.78.56,1.14.2.36.38.71.54,1.05.16.34.22.72.19,1.12.06.2.17.34.34.43s.33.2.47.34Z"/>
  <path class="cls-1" d="M230.44,49.24c0,.29-.01.5-.04.64-.14.06-.26.14-.34.24s-.23.14-.43.11c-.06.43-.2.79-.43,1.07-.23.29-.47.55-.71.79-.24.24-.48.5-.71.77-.23.27-.37.62-.43,1.05-.43.23-.85.54-1.27.92-.42.39-.78.65-1.1.79-.23.11-.47.21-.73.28-.26.07-.52.16-.77.28-.83.37-1.68.76-2.56,1.16-.87.4-1.78.6-2.73.6h-.3c-.12.11-.26.19-.43.24s-.34.08-.52.11c-.17.03-.34.07-.52.13-.17.06-.3.14-.39.26-.32-.12-.66-.17-1.03-.17h-.3c-.49.11-.95.2-1.38.26-.43.06-.89.09-1.38.09-.86,0-1.72-.06-2.58-.17-.86-.12-1.72-.21-2.58-.3-.54-.43-.99-.97-1.33-1.61s-.52-1.33-.52-2.04c0-.54.11-1.05.34-1.53.23-.47.53-.9.9-1.27h.13c.26,0,.52-.06.79-.17.27-.12.54-.17.79-.17.29,0,.52.11.71.34.19.23.33.5.43.82.1.31.16.64.19.97.03.33.04.59.04.79.31.14.65.23,1.01.26.36.03.72.04,1.1.04s.79-.02,1.25-.06c.46-.04.92-.12,1.4-.21.47-.1.93-.22,1.38-.37.44-.14.82-.33,1.14-.56,1.58-.14,2.96-.5,4.17-1.07,1.2-.57,2.48-1.25,3.82-2.02.06-.32.18-.57.37-.75.19-.19.28-.47.28-.84,0-.06,0-.12-.02-.19-.01-.07-.02-.14-.02-.19-.57-.72-1.17-1.35-1.78-1.89-.62-.54-1.41-.9-2.38-1.07-.12-.26-.3-.45-.56-.58s-.53-.25-.82-.37c-.29-.11-.56-.24-.82-.37s-.44-.35-.56-.67c-.77-.14-1.57-.32-2.38-.54s-1.51-.61-2.08-1.18c-.46-.03-.9-.12-1.31-.28-.42-.16-.82-.32-1.22-.47-.4-.16-.82-.3-1.25-.43s-.87-.19-1.33-.19c-.12-.2-.27-.36-.47-.47-.2-.11-.42-.21-.67-.3-.24-.09-.47-.18-.69-.28s-.38-.25-.49-.45c-.12.03-.2.09-.26.17-.06.09-.16.13-.3.13h-.17c-.06-.17-.17-.29-.34-.37s-.27-.22-.3-.45c-.52-.03-.98-.13-1.4-.3-.42-.17-.8-.37-1.16-.58-.36-.21-.72-.42-1.1-.62-.37-.2-.79-.36-1.25-.47-.29-.23-.55-.48-.79-.75-.24-.27-.55-.41-.92-.41-.09,0-.24.03-.47.09-.06-.52-.27-.88-.64-1.1-.37-.21-.77-.41-1.2-.58-.29-.75-.67-1.4-1.16-1.98-.49-.57-1.02-1.1-1.59-1.59.06-.17.09-.3.09-.39,0-.29-.07-.54-.21-.75-.14-.21-.3-.39-.47-.54-.4-1.29-.6-2.55-.6-3.78,0-1.72.38-3.32,1.14-4.79.76-1.48,1.96-2.58,3.59-3.33.03-.23.11-.43.24-.6s.21-.37.24-.6c.26,0,.46-.06.6-.17.14-.11.28-.24.41-.37s.26-.25.41-.37c.14-.11.33-.19.56-.21,1.09-.95,2.25-1.71,3.48-2.3,1.23-.59,2.49-1.2,3.78-1.83.26-.11.47-.33.64-.64h.26c.29,0,.51-.06.67-.19.16-.13.39-.16.71-.11.11-.17.26-.29.45-.34.19-.06.37-.11.56-.15.19-.04.37-.11.54-.19s.29-.21.34-.39h.3c.49,0,.96-.08,1.42-.24.46-.16.92-.34,1.38-.54h.3c.57,0,1.11-.11,1.61-.32.5-.21,1.04-.37,1.61-.45.23-.06.46-.07.69-.04.23.03.46.04.69.04.14,0,.31-.01.52-.04.2-.03.34-.11.43-.26h.09c.17,0,.27.06.3.17.03.11.11.17.26.17.2,0,.4-.03.6-.09.2-.06.4-.09.6-.09.86,0,1.71.09,2.56.26.84.17,1.68.33,2.51.47.06.34.21.59.45.73.24.14.51.27.79.39v.17c0,.23.06.42.17.56-.12.4-.32.7-.6.9-.29.2-.6.37-.95.52.14.11.23.27.26.47.03.2.04.39.04.56v.52l-.21-.04c-.46,0-.69.21-.69.64-.37-.23-.78-.37-1.22-.43-.44-.06-.88-.09-1.31-.09-.57,0-1.17.02-1.8.06-.63.04-1.25.04-1.85-.02-.23.29-.52.49-.86.62s-.69.19-1.03.19c-.37,0-.73-.08-1.07-.24-.34-.16-.59-.39-.73-.71-.14-.06-.27-.09-.39-.09h-.39c-.46,0-.91.05-1.35.15-.44.1-.9.21-1.35.34-.46.13-.91.26-1.35.39-.44.13-.9.21-1.35.24-.17.23-.4.39-.69.47-.29.09-.52.24-.69.47-.6.11-1.15.31-1.63.58-.49.27-.96.57-1.42.88l-1.33.9c-.43.29-.92.53-1.46.73-.4.43-.77.77-1.12,1.03s-.79.49-1.33.69c-.34.11-.54.29-.58.52-.04.23-.17.46-.37.69-.17.2-.38.35-.62.45-.24.1-.45.27-.62.49-.14.2-.25.44-.32.71-.07.27-.15.54-.24.79s-.19.51-.3.75c-.12.24-.29.45-.52.62,0,.11,0,.23-.02.34-.01.11-.02.21-.02.3,0,.4.05.81.15,1.22.1.42.16.82.19,1.22.57,1,1.25,1.91,2.02,2.73s1.6,1.57,2.49,2.26c.89.69,1.81,1.33,2.77,1.93.96.6,1.91,1.19,2.86,1.76.34-.03.66,0,.95.11.29.1.59.17.9.19.34.26.74.46,1.2.6l1.38.43c.46.14.9.31,1.33.49s.79.44,1.07.75c.14.03.27.06.39.11.11.04.24.06.39.06.17,0,.27-.06.3-.17,1.29.49,2.55,1.02,3.78,1.61,1.23.59,2.54,1.04,3.91,1.35.54.46,1.15.86,1.8,1.2.66.34,1.32.69,1.98,1.05.66.36,1.29.75,1.89,1.16s1.13.91,1.59,1.48c.06.54.18,1.07.37,1.57.19.5.28,1.04.28,1.61Z"/>
  <path class="cls-1" d="M286.69,35.11c-.23.46-.54.82-.95,1.07-.4.26-.76.59-1.07.99-.46-.03-.9-.09-1.31-.17-.42-.09-.85-.13-1.31-.13-.32,0-.64.05-.99.15s-.63.31-.86.62c-1.15-.23-2.3-.35-3.46-.37s-2.31-.05-3.46-.11c-.66.4-1.37.63-2.13.69-.76.06-1.5.19-2.21.39-.12.66-.23,1.33-.34,2-.12.67-.17,1.34-.17,2,0,.46.06.95.17,1.46.11.52.37.9.77,1.16-.03.86-.03,1.63,0,2.32.03.69-.12,1.45-.43,2.28-.14-.06-.28-.11-.41-.17s-.27-.09-.41-.09c-.26,0-.49.09-.69.28-.2.19-.39.4-.56.64s-.35.48-.54.71c-.19.23-.41.39-.67.47-.63-.17-1.25-.47-1.85-.9-.09-.4-.17-.79-.24-1.18-.07-.39-.11-.78-.11-1.18,0-.46.07-.95.21-1.46-.17-.43-.29-.86-.37-1.29-.07-.43-.11-.87-.11-1.33,0-.6.04-1.21.13-1.83s.13-1.25.13-1.91c0-.32-.01-.62-.04-.92-.03-.3-.1-.61-.21-.92-.52.06-1.02.09-1.53.09s-1,.01-1.5.04c-.5.03-1,.09-1.48.19-.49.1-.97.26-1.46.49-.32-.2-.69-.3-1.12-.3-.26,0-.52.03-.77.09s-.53.09-.82.09c-.32,0-.64-.07-.99-.21-.37-.75-.82-1.41-1.35-2-.53-.59-.97-1.25-1.31-2,1.29-.17,2.56-.29,3.82-.34,1.26-.06,2.54-.11,3.82-.17.23,0,.52,0,.86-.02s.69-.02,1.05-.02.71,0,1.05-.02.62-.04.82-.06c.23-.06.4-.18.52-.37.11-.19.3-.31.56-.37-.09-.72-.16-1.5-.21-2.36-.06-.86-.12-1.73-.17-2.6-.06-.87-.14-1.73-.26-2.56-.12-.83-.3-1.58-.56-2.23.06-.31.15-.62.28-.9.13-.29.24-.6.32-.95.23-.03.45-.1.67-.21.21-.11.45-.17.71-.17.14,0,.38.06.71.19.33.13.67.28,1.03.45.36.17.69.35,1.01.54.31.19.52.34.6.45v.21c0,.49.05.94.15,1.35.1.42.22.84.37,1.27l.17.43c.06.14.1.29.13.43.03.14.04.3.04.47v.43c0,.57-.04,1.14-.11,1.7-.07.56-.11,1.11-.11,1.65,0,.29.02.67.06,1.16.04.49.12.83.24,1.03.06.17.16.28.32.32.16.04.25.15.28.32.86-.23,1.78-.33,2.75-.3.97.03,1.9.01,2.79-.04l.69-.09c.23-.03.46-.07.69-.13.14-.03.31-.07.49-.13.19-.06.35-.09.49-.09.77,0,1.55.08,2.32.24s1.58.24,2.41.24,1.53-.11,2.19-.34c.49.23,1.01.47,1.57.73s.97.63,1.22,1.12Z"/>
  <path class="cls-1" d="M342.25,61.06c-.09.49-.28.84-.58,1.05s-.58.52-.84.92h-.17c-.29,0-.57.03-.84.09-.27.06-.55.13-.84.21-.14-.06-.32-.1-.52-.13-.2-.03-.33-.13-.39-.3-.23.11-.54.17-.95.17-.66,0-1.28-.19-1.87-.56-.59-.37-1.2-.66-1.83-.86-.17-.34-.38-.65-.62-.92-.24-.27-.49-.54-.73-.79-.24-.26-.48-.53-.71-.82-.23-.29-.42-.63-.56-1.03-.06-.17-.13-.27-.21-.3-.09-.03-.21-.03-.39,0,.03-.32,0-.59-.11-.82-.1-.23-.32-.37-.67-.43,0-.37-.06-.69-.17-.95-.12-.26-.25-.48-.41-.67-.16-.19-.33-.38-.52-.58-.19-.2-.34-.44-.45-.73-.26-.06-.51-.09-.75-.11-.24-.01-.51-.02-.79-.02-1.38,0-2.71.26-4,.77-.14.06-.29.13-.45.21-.16.09-.31.16-.45.21-.06,0-.11,0-.15.02-.04.01-.09.02-.15.02-.2,0-.39-.04-.56-.11-.17-.07-.36-.11-.56-.11-.09,0-.18.02-.28.06-.1.04-.19.08-.28.11-.43.14-.83.23-1.2.26-1.17.23-2.41.4-3.72.52-1.3.11-2.5.42-3.59.9-.23.11-.37.29-.43.54-.06.24-.07.48-.04.71-.32.23-.55.53-.71.9-.16.37-.3.77-.43,1.18-.13.42-.27.82-.41,1.22-.14.4-.34.74-.6,1.03.09.17.13.36.13.56,0,.43-.14.86-.43,1.29-.29.43-.5.84-.64,1.25-.14.4-.26.79-.34,1.18s-.21.74-.39,1.05c-.17.31-.41.57-.71.77-.3.2-.72.3-1.27.3-.52,0-.96-.1-1.33-.3-.37-.2-.67-.46-.9-.77-.23-.32-.42-.69-.56-1.12-.14-.43-.26-.86-.34-1.29.32-.63.62-1.17.9-1.63.29-.46.5-1.05.64-1.76.52-.37.9-.82,1.14-1.35.24-.53.38-1.11.41-1.74.32-.2.54-.47.67-.79.13-.33.21-.68.24-1.05-.69-.06-1.41-.12-2.17-.17-.76-.06-1.47-.2-2.13-.43,0-.06,0-.12.02-.17.01-.06.02-.12.02-.17,0-.37-.09-.71-.26-1.01s-.26-.62-.26-.97v-.34c.23-.23.44-.47.62-.71.19-.24.38-.47.58-.67s.43-.37.69-.49.59-.19.99-.19c.54,0,1.07.04,1.59.11.52.07,1.05.11,1.59.11.37,0,.76-.04,1.16-.13.63-1.29,1.19-2.6,1.68-3.93.49-1.33.86-2.69,1.12-4.06.2-.29.39-.62.56-1.01s.31-.79.41-1.22c.1-.43.17-.85.21-1.27s.06-.79.06-1.14c.31-.37.54-.83.67-1.38s.24-1.11.32-1.7.18-1.17.28-1.74c.1-.57.29-1.07.58-1.5v-.39c.03-.43-.01-.82-.13-1.16.14-.06.23-.19.26-.39.03-.2.09-.37.17-.52.03-1.32.17-2.61.43-3.89.26-1.27.47-2.56.64-3.85v-.13c0-.14-.05-.22-.15-.24-.1-.01-.15-.09-.15-.24,0-.26.04-.6.11-1.03.07-.43.12-.79.15-1.07.17-1.55.26-3.08.26-4.6,0-1.29-.04-2.56-.13-3.82-.09-1.26-.17-2.54-.26-3.82l.34-.52c.11-.17.21-.34.3-.52.29-.11.52-.24.71-.37.19-.13.44-.19.75-.19.09,0,.16,0,.21.02.06.01.11.02.17.02.17.11.31.27.41.47.1.2.2.39.3.56.1.17.24.32.41.43.17.11.42.14.73.09.14.8.54,1.22,1.2,1.25.14.4.32.8.54,1.2.21.4.51.72.88.95-.03.11-.04.27-.04.47,0,.4.09.79.28,1.16.19.37.42.72.71,1.03v.09c0,.32-.12.53-.34.64.26.29.44.63.56,1.03.11.4.21.81.3,1.22.09.42.19.81.32,1.18.13.37.35.66.67.86v.13c0,.14-.05.23-.15.26-.1.03-.15.11-.15.26.52.95.87,1.98,1.07,3.09.2,1.12.46,2.19.77,3.22.11.11.25.19.41.21.16.03.28.1.37.21-.17.11-.26.32-.26.6s-.07.5-.21.64c.23.2.34.49.32.88-.01.39.09.67.32.84v.17c0,.11-.03.21-.09.28-.06.07-.09.17-.09.28v.17c.23,1,.41,2.01.54,3.01.13,1,.26,2,.41,3.01.14,1,.3,2,.47,2.99s.42,1.96.73,2.9c.03.03.04.07.04.13,0,.14-.06.22-.17.24-.12.01-.17.09-.17.24s.05.31.15.49c.1.19.21.34.32.45-.03.11-.04.29-.04.52,0,.43.08.84.24,1.25.16.4.33.79.52,1.18.19.39.35.79.49,1.22.14.43.2.89.17,1.38.17.26.39.47.67.64.27.17.55.33.84.47.29.14.55.32.79.52.24.2.41.47.49.82-.23.2-.39.45-.47.75s-.24.57-.47.79c.2.49.44.94.71,1.35.27.42.55.82.84,1.22l.9,1.2c.31.4.59.83.82,1.29.31,0,.54.09.69.26.14.17.37.24.69.21.11.23.16.49.13.77.57-.2,1.15-.3,1.72-.3.31,0,.61.01.88.04.27.03.55.04.84.04.34,0,.64-.04.9-.13.11.17.2.37.26.58.06.21.1.44.13.67l.13.69c.06.23.14.43.26.6ZM326.05,49.16c-.4-1.98-.81-3.95-1.22-5.91-.42-1.96-.78-3.95-1.1-5.95-.17-1.06-.3-2.12-.39-3.18s-.19-2.11-.32-3.16c-.13-1.05-.3-2.08-.52-3.12s-.52-2.05-.92-3.05v-.09c0-.09.03-.16.09-.21.06-.06.09-.16.09-.3v-.17c-.37-.26-.63-.62-.77-1.1-.14-.47-.27-.97-.37-1.5-.1-.53-.23-1.05-.39-1.55-.16-.5-.42-.92-.79-1.27-.14,1.66-.29,3.32-.45,4.96-.16,1.65-.27,3.3-.32,4.96-.29.17-.47.46-.56.86-.09.4-.13.76-.13,1.07,0,.23.01.47.04.71.03.24.09.49.17.75-.52,1.29-.89,2.61-1.12,3.97-.23,1.36-.49,2.71-.77,4.06-.03.09-.08.28-.15.58-.07.3-.15.61-.24.92s-.16.59-.21.84c-.06.24-.09.38-.09.41-.03.2-.04.4-.02.6.01.2.02.4.02.6l-.64.64c-.12,1.09-.32,2.14-.62,3.16s-.61,2.06-.92,3.12c.2.03.39.05.58.06.19.01.38.02.58.02.92,0,1.84-.06,2.77-.19.93-.13,1.85-.25,2.77-.37.31-.06.64-.11.99-.15s.67-.06.99-.06c.14-.03.31-.04.52-.02.2.01.37,0,.52-.02.23-.06.38-.15.45-.28.07-.13.22-.21.45-.24.17.09.37.13.6.13.26,0,.5-.06.73-.17.23-.11.46-.24.69-.39Z"/>
  <path class="cls-1" d="M348.35,52.98c0,.46-.16.87-.47,1.25-.32.37-.59.73-.82,1.07-.4.2-.78.32-1.14.37-.36.04-.74.14-1.14.28-.14.03-.3.13-.47.3-.23-.03-.46-.12-.69-.28-.23-.16-.46-.27-.69-.32-.32-.12-.72-.19-1.22-.21-.5-.03-.87-.17-1.1-.43-.4-.4-.74-.93-1.01-1.59-.27-.66-.49-1.36-.64-2.11-.16-.75-.27-1.48-.34-2.21-.07-.73-.11-1.37-.11-1.91,0-.92.06-1.83.17-2.75.11-.92.29-1.8.52-2.66v-.21c0-.14,0-.26.02-.37.01-.1.02-.22.02-.37,0-.09,0-.17-.02-.26-.01-.09-.06-.16-.15-.21.37-.95.64-1.92.82-2.92s.31-2.01.41-3.03c.1-1.02.21-2.03.34-3.05.13-1.02.32-2.01.58-2.99-.03-.17-.05-.36-.06-.56-.01-.2-.02-.39-.02-.56,0-.52.06-1.02.17-1.53.11-.5.19-1.02.21-1.57.03-.17.03-.35,0-.54-.03-.19-.04-.38-.04-.58,0-1.26.06-2.49.19-3.7s.19-2.42.19-3.65c0-.66-.05-1.3-.15-1.91-.1-.62-.15-1.24-.15-1.87,0-.29.01-.57.04-.84.03-.27.11-.52.26-.75.63-.43,1.38-.64,2.23-.64.63,0,1.17.17,1.63.52-.03.06-.04.14-.04.26,0,.14.01.27.04.39.03.11.04.24.04.39v.17c0,.06-.01.11-.04.17.2.34.34.71.41,1.1.07.39.11.78.11,1.18,0,.37-.01.74-.04,1.1-.03.36-.04.72-.04,1.1,0,.52,0,1.03.02,1.55.01.52.02,1.03.02,1.55,0,1.38-.06,2.73-.19,4.06s-.22,2.69-.28,4.06c-.06,1.17-.21,2.32-.45,3.44-.24,1.12-.41,2.25-.49,3.39-.03.23-.04.45-.02.67.01.21.02.45.02.71,0,.66-.13,1.31-.39,1.96s-.39,1.33-.39,2.04c0,.34.06.64.17.9-.17.46-.32,1-.45,1.63s-.24,1.28-.34,1.96c-.1.67-.18,1.33-.24,1.98-.06.64-.09,1.21-.09,1.7,0,.69.09,1.38.26,2.08s.46,1.34.86,1.91c.29.09.63.13,1.03.13s.8.01,1.2.04c.4.03.77.1,1.12.21.34.11.6.34.77.69.03.06.04.11.04.17v.13Z"/>

  </g>
</symbol>




  <symbol id="bearsquash" viewBox="0 0 300 100"> <!-- Adjust the viewBox dimensions as needed -->
  <path class="cls-1" d="M120.96.37c1.85.42,4.07,1.5,5.18,2.5,1.48,1.25,2.41,2.92,3.1,5.34.46,1.75.56,2.5.56,4.59,0,5.67-2.08,10.35-7.45,16.69-2.87,3.34-7.03,7.34-11.43,10.93-1.99,1.67-3.7,3.17-3.84,3.34-.09.17.83.33,2.31.33,3.89,0,5.88.58,7.13,2.17l.69.83,1.53-.75c1.48-.67,1.57-.75,2.31-2.5.42-1,.88-1.75,1.02-1.75.32,0,.83,1.58.83,2.5,0,.33-.32,1.5-.74,2.59-.37,1.17-.69,2.09-.65,2.17.14.25,1.85-2.17,3.05-4.42,1.3-2.34,1.67-2.42,1.67-.42q0,1,.79.75c.79-.25,1.25-.58,2.92-2.25l.79-.75.37.75c.19.42.32,1.09.32,1.5,0,.58.09.58.69.42.37-.17,1.39-.67,2.31-1.25.93-.5,1.76-.92,1.85-.92.32,0,.37,1.58.05,2.67-.14.58-.23,1.08-.19,1.17s.6-.58,1.25-1.5c.65-.92,1.3-1.5,1.39-1.42.42.5.37,1.5-.05,3.67-.23,1.33-.46,2.84-.46,3.5-.09.92,0,1.08.42,1.17.69.17,1.39-.58,2.41-2.5,1.48-2.67,2.96-7.34,2.55-7.84-.28-.25,0-1.25.42-1.25.79,0,.6,2.75-.46,6.51-.56,2.09-2.82,6.51-3.7,7.34-.74.75-1.39.58-1.99-.5-.46-.83-.56-1.25-.56-2.84,0-1,.09-2.17.19-2.67.32-1.42-.05-1-1.53,1.5-.74,1.25-1.53,2.34-1.67,2.34-.32,0-.79-1.08-.97-2.42-.09-.58.05-1.42.37-2.59.28-1,.46-1.84.46-1.84-.05-.08-.56.17-1.11.58-.97.67-1.02.75-.93,1.84.09,2.09-1.39,4.84-2.96,5.51-1.02.42-2.22-2.5-1.94-4.84q.09-1-.46-.75c-.37.08-.69,0-1.11-.42-.6-.67-.32-1.08-3.61,4.67-1.06,1.75-2.04,3.25-2.17,3.25-.42,0-.88-1.25-.97-2.59-.09-.92.05-1.84.37-3.25l.51-1.92-.74.17c-1.48.42-1.71.75-1.71,2.25,0,2.92-1.11,5.51-3.75,8.68-4.53,5.42-13.1,11.68-16.15,11.68-1.34,0-2.04-1-2.04-3,0-1.17.14-1.59.93-3.09,2.59-4.67,8.01-9.6,15.27-13.85,4.12-2.34,4.16-2.5.93-3.17-2.13-.42-6.43-.17-9.72.5-1.11.25-2.13.42-2.22.33-.6-.42-.83-3.34-.32-4.17.19-.25,1.94-1.58,3.93-2.92,4.63-3.09,7.77-5.59,12.22-9.76,5.32-4.92,8.05-8.09,10.27-11.93,1.9-3.25,2.55-6.43,1.8-8.59-.74-2.17-2.64-4-5.14-5.17-1.53-.67-2.08-.75-6.57-.75-5.18,0-7.22.33-12.4,2-12.91,4.26-26.56,15.44-29.34,24.03-.46,1.42-.46,1.5-.19,2.09.19.33,1.34,1.59,2.55,2.75,2.31,2.09,3.1,3.09,3.1,3.84,0,.83-3.52-.67-5.23-2.25-1.39-1.33-2.41-5.17-1.99-7.84.88-6.01,7.59-13.77,17.63-20.36C100.65,2.38,113.74-1.21,120.96.37h0ZM129.89,48.18c-.79,1.42-.88,1.75-.6,1.84.93.33,2.59-2.09,2.13-3.17-.32-.75-.56-.58-1.53,1.33h0ZM113.74,50.44c-5.6,3.42-11.34,8.18-14.44,11.93-1.62,1.92-3.05,4.17-3.05,4.76,0,2,10.46-5.01,15.5-10.43,1.94-2.09,4.67-6.26,4.67-7.18,0-.67-.32-.58-2.68.92h0ZM64.51,7.55c4.3.75,6.9,2.92,7.64,6.34.46,2.25.28,5.84-.46,8.51-1.9,7.09-8.14,15.77-19.25,26.78-1.25,1.25-2.27,2.34-2.27,2.42,0,.17.56.08,1.16-.08,1.8-.33,3.98-.17,5.04.33.79.42,1.16.92,1.71,2.09l.69,1.42,1.39-.67c1.62-.75,1.53-.67,2.87-2.59,1.11-1.5,2.17-2.34,2.73-2.09.42.17.74,1.75.6,2.92-.19,1.17-2.13,4.92-3.47,6.67-1.53,1.92-1.43,2.25.37,1.09,1.57-1.09,3.52-3.25,4.07-4.59.74-1.67,1.53-3,2.31-3.75,1.2-1.09,1.48-.83,1.9,1.5.09.58.23.42,1.16-.92.93-1.5,1.02-1.59,1.3-1.08.28.5.28.67-.23,2.59-.28,1.08-.46,2.09-.42,2.17.37.67,4.21-3.67,4.49-5.01.19-.83,1.25-1.92,1.53-1.5.42.67.28,2-.42,4-.97,2.84-.83,3.25.46,1.67.6-.83,1.9-2.67,2.87-4.26,1.02-1.59,1.8-2.59,1.9-2.42.05.17.05.83,0,1.5q-.14,1.17.56,1.17c.37,0,1.25-.25,1.9-.5,1.06-.42,1.25-.42,1.48,0,.46.83,0,1.59-1.48,2.34-2.04,1.08-2.5,1.08-2.96-.33-.23-.67-.46-1.17-.56-1.17s-1.16,1.67-2.36,3.76c-1.25,2.17-2.5,4.09-2.82,4.42-.56.5-.6.5-.97-.17-.32-.58-.42-1.09-.42-2.67l.05-2-.69,1c-1.02,1.42-1.9,2.34-2.31,2.34-.51,0-1.02-1.17-1.02-2.25,0-.42-.05-.75-.09-.75-.09,0-.79.92-1.57,2-1.48,2.09-2.82,3.34-3.24,3.09-.09-.08-.32-.58-.46-1.09-.14-.42-.28-.92-.28-1-.05-.08-.65.58-1.3,1.5-1.71,2.17-2.96,3.17-3.93,3.17-.74,0-.93-.17-1.62-1.5-.46-.75-.83-1.67-.83-2s.28-.83.56-1.17c.56-.5.93-1.84.69-2.25-.09-.08-.46.08-.88.42-.65.5-.74.75-.74,1.67,0,4.09-2.78,10.43-7.03,15.94-2.22,2.84-7.73,7.84-10.64,9.51-3.93,2.42-5.37,2.17-6.2-.75-.51-2-.42-2.84.88-5.26,1.94-3.67,7.08-9.35,13.05-14.6,3.98-3.5,8.38-7.01,8.65-7.01.42,0,.14-1.09-.42-1.59-.93-.92-5-.83-7.54.17-2.78,1.17-5.78,2.84-7.87,4.42l-1.8,1.42-.32-.75c-.19-.33-.37-1.33-.46-2.09-.14-1.33-.09-1.5.6-2.5.83-1.33,4.77-5.17,10.97-10.76,8.7-8.01,14.67-15.19,18.42-22.36,1.25-2.42,2.27-5.59,2.08-6.51-.19-.83-1.34-2.17-2.45-2.92-1.8-1.08-4.03-1.58-7.4-1.58-14.67,0-35.31,11.77-48.5,27.7-5.78,6.93-9.86,14.69-11.11,21.03-.42,2.17-.37,5.59.09,7.26,1.16,4,4.4,6.59,9.72,7.59,1.94.33,2.68.58,2.82,1,.14.33.19.67.14.83-.19.5-4.49.33-6.39-.17-3.38-1-6.11-4.34-7.4-9.1-.83-3-.97-6.59-.37-9.76.83-4.51,3.66-10.68,7.22-15.85,3.7-5.26,9.9-12.1,15.09-16.6,13.51-11.6,31.88-19.36,41.83-17.77h0ZM64.23,53.11c-.93,1.08-2.22,3.42-2.22,4,0,.5,2.73-3,3.19-4.09.46-1.25.14-1.25-.97.08h0ZM69.27,56.61c-.51.92-.74,1.5-.56,1.5.42,0,1.99-1.92,1.99-2.5,0-.92-.56-.58-1.43,1h0ZM54.56,60.78c-7.31,5.67-14.58,13.43-17.17,18.19l-1.02,1.92.83-.25c1.8-.5,6.99-3.92,10.09-6.67,4.95-4.42,7.73-8.09,9.63-12.6.74-1.75,1.06-2.92.74-2.92-.05,0-1.43,1-3.1,2.34h0ZM177.74,18.06c8.38,1,14.67,4,16.01,7.68.88,2.25.46,5.26-1.16,8.01-1.62,2.75-4.49,5.76-8.7,9.01-8.19,6.34-15.78,10.26-22.95,11.85-2.92.58-4.53.5-5.97-.5-2.08-1.42-2.96-3.5-3.15-7.43l-.14-2.25-1.67,2.17c-.93,1.17-2.13,2.84-2.73,3.67-.79,1.08-1.25,1.5-1.57,1.42-.6-.17-1.34-2-1.34-3.42,0-1.33.74-4.01,1.57-5.67.65-1.25.69-1.25,1.02-.67.23.33.42,1.08.51,1.67.09.83,0,1.33-.6,2.67-.32.83-.6,1.67-.56,1.75.14.17,1.34-1.08,3.98-4.17,2.64-3.17,2.68-3.09,2.5,1.67-.09,3.17-.09,3.34.32,4.09.97,1.92,2.27,2.5,5.41,2.5,5.83,0,14.3-3.92,25.08-11.51,6.02-4.26,10.18-9.35,10.18-12.35,0-1-1.16-2.92-2.45-4-5.32-4.59-16.94-5.76-30.59-3.17-8.28,1.59-17.45,4.92-20.41,7.43-.65.5-.74.75-.56,1.09.28.58-.05,1.33-.74,1.67-.56.25-.97-.5-.97-1.92,0-2.09,2.82-5.01,6.34-6.59,6.48-2.92,25.41-5.59,33.32-4.67h0ZM104.4,23.65c.28,1,.28,1.17-.79,3.92-2.36,6.26-6.8,21.53-9.26,32.12-1.8,7.59-1.9,8.26-1.62,9.26.32,1,.14,2.25-.6,3.76-.6,1.17-.65,1.17-1.2.75-1.2-.92-1.39-2.34-.74-5.76.37-2,3.98-15.35,5.46-20.28,4.58-15.1,7.73-24.36,8.33-24.36.14,0,.32.25.42.58h0ZM45.3,32.5c.05.58-.05,1.17-.37,1.92-.93,2.25-4.16,11.6-5.78,16.69-2.22,7.01-4.77,16.1-6.2,22.36-1.06,4.42-4.07,18.61-4.07,19.19,0,.08.19.08.46-.08,1.02-.42,1.11,2.67.09,4q-.51.67-1.11,0c-.88-.92-1.48-2.59-1.48-4.17,0-2.92,4.44-20.53,8.79-34.71,2.68-8.84,7.27-22.2,8.56-24.95.56-1.25.93-1.33,1.11-.25h0ZM160.99,63.79c.37.67.28,1.17-.23,1.92s-2.17,1-2.41.42c-.14-.42.23-1.59.6-2,.65-.58,1.8-.75,2.04-.33h0ZM150.53,64.96c.28.5.14,1.67-.23,2.34-.28.5-.74.58-2.73.67-1.3.08-3.42.25-4.77.5-1.3.17-4.81.58-7.77,1-22.26,2.75-39.38,6.84-56.92,13.52-13.19,5.01-26.42,12.27-33.27,18.36-1.57,1.33-2.92,2.5-3.01,2.5-.32,0-.74-2-.74-3.5v-1.59l1.16-.92c1.3-1.08,5.6-3.59,10.04-5.84,11.99-6.17,37.71-15.6,51.27-18.69,3.61-.83,11.2-2.34,26.1-5.01,4.58-.83,10.32-1.92,12.77-2.42,4.91-1,7.91-1.33,8.1-.92h0Z"/>
  </symbol>
   <symbol id="bearbrown" viewBox="0 0 300 100"> <!-- Adjust the viewBox dimensions as needed -->
  <path class="cls-1" d="M218.11.37c3.34.42,7.34,1.5,9.35,2.5,2.67,1.25,4.34,2.92,5.59,5.34.83,1.75,1,2.5,1,4.59,0,5.67-3.75,10.35-13.43,16.69-5.17,3.34-12.68,7.34-20.61,10.93-3.59,1.67-6.68,3.17-6.93,3.34-.17.17,1.5.33,4.17.33,7.01,0,10.6.58,12.85,2.17l1.25.83,2.75-.75c2.67-.67,2.84-.75,4.17-2.5.75-1,1.59-1.75,1.84-1.75.58,0,1.5,1.58,1.5,2.5,0,.33-.58,1.5-1.34,2.59-.67,1.17-1.25,2.09-1.17,2.17.25.25,3.34-2.17,5.51-4.42,2.34-2.34,3-2.42,3-.42q0,1,1.42.75c1.42-.25,2.25-.58,5.26-2.25l1.42-.75.67.75c.33.42.58,1.09.58,1.5,0,.58.17.58,1.25.42.67-.17,2.5-.67,4.17-1.25,1.67-.5,3.17-.92,3.34-.92.58,0,.67,1.58.08,2.67-.25.58-.42,1.08-.33,1.17s1.08-.58,2.25-1.5c1.17-.92,2.34-1.5,2.5-1.42.75.5.67,1.5-.08,3.67-.42,1.33-.83,2.84-.83,3.5-.17.92,0,1.08.75,1.17,1.25.17,2.5-.58,4.34-2.5,2.67-2.67,5.34-7.34,4.59-7.84-.5-.25,0-1.25.75-1.25,1.42,0,1.08,2.75-.83,6.51-1,2.09-5.09,6.51-6.68,7.34-1.34.75-2.5.58-3.59-.5-.83-.83-1-1.25-1-2.84,0-1,.17-2.17.33-2.67.58-1.42-.08-1-2.75,1.5-1.34,1.25-2.75,2.34-3,2.34-.58,0-1.42-1.08-1.75-2.42-.17-.58.08-1.42.67-2.59.5-1,.83-1.84.83-1.84-.08-.08-1,.17-2,.58-1.75.67-1.84.75-1.67,1.84.17,2.09-2.5,4.84-5.34,5.51-1.84.42-4.01-2.5-3.5-4.84q.17-1-.83-.75c-.67.08-1.25,0-2-.42-1.08-.67-.58-1.08-6.51,4.67-1.92,1.75-3.67,3.25-3.92,3.25-.75,0-1.59-1.25-1.75-2.59-.17-.92.08-1.84.67-3.25l.92-1.92-1.34.17c-2.67.42-3.09.75-3.09,2.25,0,2.92-2,5.51-6.76,8.68-8.18,5.42-23.61,11.68-29.12,11.68-2.42,0-3.67-1-3.67-3,0-1.17.25-1.59,1.67-3.09,4.67-4.67,14.44-9.6,27.54-13.85,7.43-2.34,7.51-2.5,1.67-3.17-3.84-.42-11.6-.17-17.52.5-2,.25-3.84.42-4.01.33-1.08-.42-1.5-3.34-.58-4.17.33-.25,3.5-1.58,7.09-2.92,8.34-3.09,14.02-5.59,22.03-9.76,9.6-4.92,14.52-8.09,18.52-11.93,3.42-3.25,4.59-6.43,3.25-8.59-1.34-2.17-4.76-4-9.26-5.17-2.75-.67-3.75-.75-11.85-.75-9.35,0-13.02.33-22.36,2-23.28,4.26-47.89,15.44-52.9,24.03-.83,1.42-.83,1.5-.33,2.09.33.33,2.42,1.59,4.59,2.75,4.17,2.09,5.59,3.09,5.59,3.84,0,.83-6.34-.67-9.43-2.25-2.5-1.33-4.34-5.17-3.59-7.84,1.59-6.01,13.68-13.77,31.79-20.36C181.48,2.38,205.1-1.21,218.11.37h0ZM234.22,48.18c-1.42,1.42-1.59,1.75-1.08,1.84,1.67.33,4.67-2.09,3.84-3.17-.58-.75-1-.58-2.75,1.33h0ZM205.1,50.44c-10.1,3.42-20.44,8.18-26.03,11.93-2.92,1.92-5.51,4.17-5.51,4.76,0,2,18.86-5.01,27.95-10.43,3.5-2.09,8.43-6.26,8.43-7.18,0-.67-.58-.58-4.84.92h0ZM116.31,7.55c7.76.75,12.43,2.92,13.77,6.34.83,2.25.5,5.84-.83,8.51-3.42,7.09-14.69,15.77-34.71,26.78-2.25,1.25-4.09,2.34-4.09,2.42,0,.17,1,.08,2.09-.08,3.25-.33,7.18-.17,9.09.33,1.42.42,2.09.92,3.09,2.09l1.25,1.42,2.5-.67c2.92-.75,2.75-.67,5.17-2.59,2-1.5,3.92-2.34,4.92-2.09.75.17,1.34,1.75,1.08,2.92-.33,1.17-3.84,4.92-6.26,6.67-2.75,1.92-2.59,2.25.67,1.09,2.84-1.09,6.34-3.25,7.34-4.59,1.34-1.67,2.75-3,4.17-3.75,2.17-1.09,2.67-.83,3.42,1.5.17.58.42.42,2.09-.92,1.67-1.5,1.84-1.59,2.34-1.08.5.5.5.67-.42,2.59-.5,1.08-.83,2.09-.75,2.17.67.67,7.59-3.67,8.09-5.01.33-.83,2.25-1.92,2.75-1.5.75.67.5,2-.75,4-1.75,2.84-1.5,3.25.83,1.67,1.08-.83,3.42-2.67,5.17-4.26,1.84-1.59,3.25-2.59,3.42-2.42.08.17.08.83,0,1.5q-.25,1.17,1,1.17c.67,0,2.25-.25,3.42-.5,1.92-.42,2.25-.42,2.67,0,.83.83,0,1.59-2.67,2.34-3.67,1.08-4.51,1.08-5.34-.33-.42-.67-.83-1.17-1-1.17s-2.09,1.67-4.26,3.76c-2.25,2.17-4.51,4.09-5.09,4.42-1,.5-1.08.5-1.75-.17-.58-.58-.75-1.09-.75-2.67l.08-2-1.25,1c-1.84,1.42-3.42,2.34-4.17,2.34-.92,0-1.84-1.17-1.84-2.25,0-.42-.08-.75-.17-.75-.17,0-1.42.92-2.84,2-2.67,2.09-5.09,3.34-5.84,3.09-.17-.08-.58-.58-.83-1.09-.25-.42-.5-.92-.5-1-.08-.08-1.17.58-2.34,1.5-3.09,2.17-5.34,3.17-7.09,3.17-1.34,0-1.67-.17-2.92-1.5-.83-.75-1.5-1.67-1.5-2s.5-.83,1-1.17c1-.5,1.67-1.84,1.25-2.25-.17-.08-.83.08-1.59.42-1.17.5-1.34.75-1.34,1.67,0,4.09-5.01,10.43-12.68,15.94-4.01,2.84-13.93,7.84-19.19,9.51-7.09,2.42-9.68,2.17-11.18-.75-.92-2-.75-2.84,1.59-5.26,3.5-3.67,12.77-9.35,23.53-14.6,7.18-3.5,15.1-7.01,15.6-7.01.75,0,.25-1.09-.75-1.59-1.67-.92-9.01-.83-13.6.17-5.01,1.17-10.43,2.84-14.18,4.42l-3.25,1.42-.58-.75c-.33-.33-.67-1.33-.83-2.09-.25-1.33-.17-1.5,1.08-2.5,1.5-1.33,8.59-5.17,19.78-10.76,15.69-8.01,26.45-15.19,33.21-22.36,2.25-2.42,4.09-5.59,3.75-6.51-.33-.83-2.42-2.17-4.42-2.92-3.25-1.08-7.26-1.58-13.35-1.58-26.45,0-63.66,11.77-87.45,27.7-10.43,6.93-17.77,14.69-20.03,21.03-.75,2.17-.67,5.59.17,7.26,2.09,4,7.93,6.59,17.52,7.59,3.5.33,4.84.58,5.09,1,.25.33.33.67.25.83-.33.5-8.09.33-11.51-.17-6.09-1-11.01-4.34-13.35-9.1-1.5-3-1.75-6.59-.67-9.76,1.5-4.51,6.59-10.68,13.02-15.85,6.68-5.26,17.86-12.1,27.2-16.6C65.25,13.72,98.38,5.96,116.31,7.55h0ZM115.81,53.11c-1.67,1.08-4.01,3.42-4.01,4,0,.5,4.92-3,5.76-4.09.83-1.25.25-1.25-1.75.08h0ZM124.91,56.61c-.92.92-1.34,1.5-1,1.5.75,0,3.59-1.92,3.59-2.5,0-.92-1-.58-2.59,1h0ZM98.38,60.78c-13.18,5.67-26.28,13.43-30.96,18.19l-1.84,1.92,1.5-.25c3.25-.5,12.6-3.92,18.19-6.67,8.93-4.42,13.93-8.09,17.36-12.6,1.34-1.75,1.92-2.92,1.34-2.92-.08,0-2.59,1-5.59,2.34h0ZM320.49,18.06c15.1,1,26.45,4,28.87,7.68,1.59,2.25.83,5.26-2.09,8.01s-8.09,5.76-15.69,9.01c-14.77,6.34-28.45,10.26-41.39,11.85-5.26.58-8.18.5-10.76-.5-3.75-1.42-5.34-3.5-5.67-7.43l-.25-2.25-3,2.17c-1.67,1.17-3.84,2.84-4.92,3.67-1.42,1.08-2.25,1.5-2.84,1.42-1.08-.17-2.42-2-2.42-3.42,0-1.33,1.34-4.01,2.84-5.67,1.17-1.25,1.25-1.25,1.84-.67.42.33.75,1.08.92,1.67.17.83,0,1.33-1.08,2.67-.58.83-1.08,1.67-1,1.75.25.17,2.42-1.08,7.18-4.17,4.76-3.17,4.84-3.09,4.51,1.67-.17,3.17-.17,3.34.58,4.09,1.75,1.92,4.09,2.5,9.76,2.5,10.51,0,25.78-3.92,45.22-11.51,10.85-4.26,18.36-9.35,18.36-12.35,0-1-2.09-2.92-4.42-4-9.6-4.59-30.54-5.76-55.15-3.17-14.94,1.59-31.46,4.92-36.8,7.43-1.17.5-1.34.75-1,1.09.5.58-.08,1.33-1.34,1.67-1,.25-1.75-.5-1.75-1.92,0-2.09,5.09-5.01,11.43-6.59,11.68-2.92,45.81-5.59,60.08-4.67h0ZM188.24,23.65c.5,1,.5,1.17-1.42,3.92-4.26,6.26-12.27,21.53-16.69,32.12-3.25,7.59-3.42,8.26-2.92,9.26.58,1,.25,2.25-1.08,3.76-1.08,1.17-1.17,1.17-2.17.75-2.17-.92-2.5-2.34-1.34-5.76.67-2,7.18-15.35,9.85-20.28,8.26-15.1,13.93-24.36,15.02-24.36.25,0,.58.25.75.58h0ZM81.69,32.5c.08.58-.08,1.17-.67,1.92-1.67,2.25-7.51,11.6-10.43,16.69-4.01,7.01-8.59,16.1-11.18,22.36-1.92,4.42-7.34,18.61-7.34,19.19,0,.08.33.08.83-.08,1.84-.42,2,2.67.17,4q-.92.67-2,0c-1.59-.92-2.67-2.59-2.67-4.17,0-2.92,8.01-20.53,15.85-34.71,4.84-8.84,13.1-22.2,15.44-24.95,1-1.25,1.67-1.33,2-.25h0ZM290.29,63.79c.67.67.5,1.17-.42,1.92s-3.92,1-4.34.42c-.25-.42.42-1.59,1.08-2,1.17-.58,3.25-.75,3.67-.33h0ZM271.43,64.96c.5.5.25,1.67-.42,2.34-.5.5-1.34.58-4.92.67-2.34.08-6.17.25-8.59.5-2.34.17-8.68.58-14.02,1-40.13,2.75-71.01,6.84-102.63,13.52-23.78,5.01-47.64,12.27-59.99,18.36-2.84,1.33-5.26,2.5-5.42,2.5-.58,0-1.34-2-1.34-3.5v-1.59l2.09-.92c2.34-1.08,10.1-3.59,18.11-5.84,21.61-6.17,68-15.6,92.45-18.69,6.51-.83,20.19-2.34,47.06-5.01,8.26-.83,18.61-1.92,23.03-2.42,8.84-1,14.27-1.33,14.6-.92h0Z"/>
  </symbol>

   <symbol id="bb" viewBox="0 0 100 100"> <!-- Adjust the viewBox dimensions as needed -->
    <path class="cls-1" d="M58.54,107.63c-1.64-.96-2.79-2.89-2.79-4.62,0-3.18,9.24-23.57,17.9-39.45,3.27-5.96,10.87-18.66,14.14-23.67,1.83-2.69,2.21-3.56,2.21-5,0-2.41,1.64-5,5-8.18,3.37-3.08,7.6-5.77,14.82-9.43,9.43-4.72,9.91-4.81,16.16-4.81,6.74-.1,7.7.38,3.75,1.63-15.78,5.2-32.42,14.72-35.12,20.11-.48.96-1.06,1.92-1.25,2.31-.67.96-.19,1.35,5.87,4.52,4.81,2.6,6.64,3.94,5.97,4.52-.38.39-6.45-1.06-9.33-2.21-1.64-.67-3.18-1.64-3.75-2.31l-.96-1.15-2.89,4.33c-5.97,9.14-14.62,25.21-18.86,35.12-2.02,4.62-5.48,13.37-8.27,20.97l-1.15,3.08,1.25-.1c1.15-.1,1.25,0,1.35,1.54.1,1.35-.1,1.83-.87,2.6-1.15,1.15-1.54,1.25-3.18.19h0ZM75.18,95.02c-1.64-.77-2.6-2.31-2.79-4.23l-.19-1.92,2.6-2.69c5.77-5.77,20.3-14.05,39.16-22.32,3.37-1.44,6.06-2.79,6.16-2.98,0-.19-.58-.67-1.25-1.06-1.83-1.15-6.93-1.25-11.83-.48-7.12,1.25-15.78,3.75-21.26,6.16-2.5,1.15-3.37,1.15-3.85-.29-.87-2.41-.87-3.37.29-4.43,1.35-1.25,10.01-6.06,20.49-11.26,10.49-5.2,17.13-8.95,23.67-13.28,12.12-7.98,20.01-15.3,21.36-19.82.48-1.44.38-1.64-.48-2.5-1.25-1.44-4.23-2.69-8.27-3.46-4.71-.96-18.57-.96-25.88,0-30.79,4.04-63.69,16.07-86.69,31.46-10.39,6.93-18.95,15.68-22.23,22.61-.87,1.83-.96,2.69-.96,5.48,0,3.08.1,3.46,1.15,5,1.54,2.31,5.2,4.62,9.04,5.87,4.14,1.25,6.35,1.63,11.83,2.12,4.33.39,5.1.67,5.1,1.92,0,.77-12.32.29-15.68-.48C5.71,82.23-.54,74.82.04,67.03c.48-8.66,8.56-17.9,25.11-28.96,13.18-8.76,28.29-15.97,45.99-22.03,22.61-7.7,48.2-12.12,62.35-10.78,6.83.67,5.87.77,12.89-.87,25.5-5.77,46.76-5.87,55.32-.19,4.04,2.6,5.77,5.87,5.87,10.49,0,2.79-.19,3.46-1.35,5.77-2.98,5.97-10.39,11.93-24.44,19.63-4.52,2.41-8.27,4.14-21.36,10.1-.77.39.1.48,4.43.48,8.27.1,12.32.77,15.01,2.6l1.44.96,3.56-.87c2.02-.48,3.75-.77,3.85-.67.38.38-.58,1.44-1.25,1.44-.38,0-1.83.39-3.27.87l-2.6.77v1.73c0,2.31-.87,4.04-3.18,6.35-4.81,4.81-16.26,10.78-28.38,14.82-4.23,1.44-5.87,1.83-8.66,1.92-3.37.19-3.56.19-4.43-.77-.96-1.06-1.15-3.08-.48-4.43,1.15-2.12,6.64-6.06,13.37-9.62,5.48-2.98,16.55-7.22,25.5-9.72.87-.29,1.64-.58,1.64-.77,0-1.25-14.82-1.64-24.44-.58-2.89.29-5.58.48-5.87.39-.67-.29-1.44-2.98-1.06-3.94.29-.96,1.15-1.35,9.62-4.52,17.8-6.64,35.5-15.97,44.55-23.38,4.91-4.14,6.83-8.47,4.81-11.45-1.73-2.6-6.06-4.81-11.83-6.06-4.62-.96-19.82-.87-28.09.29-5.87.77-16.16,2.6-16.55,2.98-.1.1.29.77.87,1.54,1.44,2.12,2.02,5.39,1.44,7.98-.87,3.75-2.6,6.54-6.45,10.68-7.12,7.31-15.59,13.09-38,25.79l-1.92,1.06,5.39-.29c7.41-.29,10.01.58,12.12,3.75l.58.87,2.79-.87c2.69-.77,4.52-.77,4.23.19-.19.48-1.35,1.06-4.33,2.21l-2.31.87-.29,1.92c-.87,7.6-11.06,17.03-25.98,24.34-9.43,4.62-18.47,7.12-21.07,5.96h0ZM79.41,89.06c6.16-1.54,15.2-5.1,21.36-8.37,8.47-4.52,16.74-11.26,18.76-15.3l.87-1.64-1.83.77c-10.97,4.33-25.69,11.93-33.77,17.51-3.66,2.5-9.81,8.08-8.47,7.79.38-.1,1.83-.48,3.08-.77h0ZM143.68,76.65c8.27-2.41,22.23-8.66,28.48-12.8,3.66-2.41,7.5-5.87,7.5-6.83,0-.77-.19-.77-5.29,1.06-10.58,3.66-23.76,9.62-29.54,13.37-3.46,2.31-6.64,4.81-6.93,5.68-.29.87,1.92.67,5.77-.48h0ZM126.37,84.54c-1.25-.67-2.12-2.02-2.12-3.08-.1-4.04,16.65-36.56,25.98-50.71,3.08-4.62,3.75-5,4.71-3.08.48.96.38,1.16-.87,2.79-3.56,4.72-13.57,23.57-19.15,36.18-4.14,9.33-5.2,12.12-4.62,12.51.58.38.77,2.02.38,2.89-.67,1.25-2.31,2.89-2.98,2.89-.29,0-.96-.19-1.35-.39h0Z"/>
  </symbol>
</svg>