<?xml version="1.0" encoding="UTF-8"?>
<svg id="Layer_1" data-name="Layer 1" xmlns="http://www.w3.org/2000/svg" viewBox="0 0 7500 5000">
  <defs>
    <style>
      .cls-1 {
        fill: none;
      }
      .cls-2 {
        fill: #FFFFFF; /* White color for dark mode */
      }
    </style>
  </defs>
  <rect class="cls-1" width="7500" height="5000"/>
  <path class="cls-2" d="M4638.91,1435c68.96,8.61,151.71,31.02,193.08,51.71,55.17,25.86,89.65,60.34,115.51,110.33,17.24,36.21,20.69,51.73,20.69,94.83,0,117.23-77.58,213.77-277.56,344.79-106.89,68.96-262.04,151.7-425.82,225.84-74.13,34.49-137.92,65.5-143.09,68.96-3.45,3.45,31.03,6.9,86.2,6.9,144.81,0,218.95,12.07,265.49,44.82l25.86,17.23,56.89-15.52c55.17-13.79,58.61-15.5,86.2-51.71,15.52-20.69,32.76-36.2,37.93-36.2,12.07,0,31.03,32.75,31.03,51.71,0,6.89-12.07,31.03-27.58,53.44-13.79,24.15-25.86,43.1-24.14,44.82,5.17,5.18,68.96-44.82,113.78-91.38,48.27-48.26,62.06-49.99,62.06-8.61q0,20.69,29.31,15.52c29.31-5.18,46.55-12.07,108.61-46.55l29.31-15.52,13.79,15.52c6.9,8.63,12.07,22.42,12.07,31.03,0,12.07,3.45,12.07,25.86,8.61,13.79-3.44,51.72-13.79,86.2-25.86,34.48-10.34,65.51-18.95,68.96-18.95,12.07,0,13.79,32.75,1.72,55.16-5.17,12.07-8.62,22.41-6.9,24.13,1.72,1.73,22.41-12.07,46.55-31.03,24.14-18.95,48.27-31.03,51.72-29.31,15.52,10.35,13.79,31.03-1.72,75.86-8.62,27.58-17.24,58.62-17.24,72.41-3.45,18.97,0,22.41,15.52,24.13,25.86,3.45,51.72-12.07,89.65-51.71,55.17-55.16,110.33-151.72,94.82-162.06-10.34-5.16,0-25.86,15.52-25.86,29.31,0,22.41,56.89-17.24,134.47-20.69,43.1-105.16,134.46-137.92,151.7-27.58,15.52-51.72,12.07-74.13-10.34-17.24-17.24-20.69-25.86-20.69-58.62,0-20.69,3.45-44.82,6.9-55.16,12.07-29.31-1.72-20.69-56.89,31.03-27.58,25.86-56.89,48.26-62.06,48.26-12.07,0-29.31-22.41-36.2-49.99-3.45-12.08,1.72-29.31,13.79-53.45,10.34-20.68,17.24-37.92,17.24-37.92-1.72-1.73-20.69,3.45-41.38,12.07-36.2,13.79-37.93,15.52-34.48,37.94,3.45,43.1-51.72,99.99-110.33,113.78-37.93,8.61-82.75-51.73-72.41-99.99q3.45-20.69-17.24-15.52c-13.79,1.73-25.86,0-41.37-8.63-22.41-13.79-12.07-22.41-134.47,96.55-39.65,36.2-75.85,67.23-81.03,67.23-15.52,0-32.76-25.86-36.2-53.44-3.45-18.97,1.72-37.94,13.79-67.24l18.96-39.65-27.58,3.45c-55.17,8.61-63.79,15.52-63.79,46.55,0,60.33-41.38,113.78-139.64,179.29-168.95,112.06-487.88,241.35-601.67,241.35-50,0-75.86-20.68-75.86-62.05,0-24.15,5.17-32.76,34.48-63.79,96.54-96.54,298.25-198.25,568.91-286.18,153.43-48.28,155.16-51.71,34.48-65.52-79.3-8.61-239.63-3.44-362.03,10.35-41.38,5.16-79.3,8.61-82.75,6.89-22.41-8.61-31.03-68.96-12.07-86.2,6.9-5.16,72.41-32.75,146.54-60.34,172.4-63.78,289.63-115.49,455.13-201.69,198.26-101.72,299.97-167.23,382.72-246.53,70.68-67.24,94.82-132.75,67.23-177.57-27.58-44.82-98.27-82.75-191.36-106.89-56.89-13.79-77.58-15.5-244.8-15.5-193.08,0-268.94,6.89-462.02,41.37-480.99,87.92-989.56,318.92-1093,496.5-17.24,29.31-17.24,31.03-6.9,43.1,6.9,6.9,49.99,32.76,94.82,56.89,86.2,43.1,115.51,63.79,115.51,79.31,0,17.23-131.02-13.79-194.81-46.55-51.72-27.58-89.65-106.89-74.13-162.06,32.76-124.12,282.73-284.45,656.83-420.65,362.03-132.74,849.92-206.87,1118.86-174.11h0ZM4971.64,2422.83c-29.31,29.31-32.76,36.2-22.41,37.92,34.48,6.9,96.54-43.1,79.3-65.5-12.07-15.52-20.69-12.07-56.89,27.58h0ZM4369.98,2469.38c-208.6,70.68-422.37,168.95-537.88,246.52-60.34,39.66-113.78,86.2-113.78,98.28,0,41.37,389.62-103.44,577.53-215.5,72.41-43.1,174.12-129.3,174.12-148.27,0-13.79-12.07-12.07-99.99,18.97h0ZM2535.67,1583.25c160.33,15.52,256.87,60.34,284.46,131.02,17.24,46.55,10.34,120.68-17.24,175.85-70.68,146.54-303.42,325.83-717.17,553.39-46.55,25.87-84.47,48.28-84.47,50,0,3.45,20.69,1.73,43.1-1.73,67.23-6.9,148.26-3.45,187.91,6.9,29.31,8.61,43.1,18.95,63.79,43.1l25.86,29.29,51.72-13.79c60.34-15.5,56.89-13.79,106.89-53.44,41.38-31.03,81.03-48.26,101.71-43.1,15.52,3.45,27.58,36.21,22.41,60.34-6.9,24.13-79.3,101.72-129.3,137.91-56.89,39.66-53.44,46.55,13.79,22.42,58.61-22.42,131.02-67.24,151.71-94.83,27.58-34.47,56.89-62.05,86.2-77.57,44.82-22.42,55.17-17.24,70.68,31.03,3.45,12.07,8.62,8.61,43.1-18.97,34.48-31.03,37.93-32.76,48.27-22.41,10.34,10.34,10.34,13.79-8.62,53.44-10.34,22.41-17.24,43.1-15.52,44.82,13.79,13.79,156.88-75.86,167.23-103.44,6.9-17.24,46.55-39.65,56.89-31.03,15.52,13.79,10.34,41.37-15.52,82.75-36.2,58.62-31.03,67.24,17.24,34.49,22.41-17.24,70.68-55.16,106.89-87.92,37.93-32.76,67.23-53.44,70.68-50,1.72,3.45,1.72,17.24,0,31.03q-5.17,24.15,20.69,24.15c13.79,0,46.55-5.18,70.68-10.35,39.65-8.61,46.55-8.61,55.17,0,17.24,17.24,0,32.76-55.17,48.28-75.85,22.41-93.09,22.41-110.33-6.9-8.62-13.79-17.24-24.13-20.69-24.13s-43.1,34.49-87.92,77.58c-46.55,44.82-93.09,84.47-105.16,91.36-20.69,10.35-22.41,10.35-36.2-3.44-12.07-12.08-15.52-22.42-15.52-55.18l1.72-41.37-25.86,20.69c-37.93,29.31-70.68,48.28-86.2,48.28-18.96,0-37.93-24.15-37.93-46.55,0-8.63-1.72-15.52-3.45-15.52-3.45,0-29.31,18.97-58.62,41.37-55.17,43.1-105.16,68.96-120.68,63.79-3.45-1.73-12.07-12.08-17.24-22.42-5.17-8.61-10.34-18.97-10.34-20.68-1.72-1.73-24.14,12.07-48.27,31.02-63.79,44.82-110.33,65.52-146.54,65.52-27.58,0-34.48-3.45-60.34-31.03-17.24-15.52-31.03-34.49-31.03-41.37s10.34-17.24,20.69-24.13c20.69-10.35,34.48-37.94,25.86-46.55-3.45-1.73-17.24,1.73-32.76,8.61-24.14,10.34-27.58,15.52-27.58,34.49,0,84.47-103.44,215.5-262.04,329.28-82.75,58.62-287.9,162.06-396.51,196.53-146.54,50-199.98,44.82-231.01-15.52-18.96-41.37-15.52-58.62,32.76-108.6,72.41-75.86,263.77-193.09,486.16-301.7,148.26-72.41,312.04-144.81,322.38-144.81,15.52,0,5.17-22.42-15.52-32.76-34.48-18.95-186.19-17.24-281.01,3.45-103.44,24.13-215.5,58.62-293.07,91.38l-67.24,29.31-12.07-15.52c-6.9-6.9-13.79-27.58-17.24-43.1-5.17-27.58-3.45-31.03,22.41-51.73,31.03-27.58,177.57-106.88,408.58-222.39,324.11-165.51,546.5-313.76,686.14-462.03,46.55-50,84.47-115.51,77.58-134.47-6.9-17.24-49.99-44.82-91.37-60.34-67.23-22.41-149.99-32.75-275.84-32.75-546.5,0-1315.39,243.08-1806.72,572.36-215.5,143.09-367.21,303.42-413.75,434.44-15.52,44.82-13.79,115.51,3.45,149.98,43.1,82.75,163.78,136.2,362.04,156.88,72.41,6.9,99.99,12.07,105.16,20.69,5.17,6.89,6.9,13.79,5.17,17.24-6.9,10.34-167.23,6.89-237.91-3.45-125.85-20.69-227.57-89.65-275.84-187.91-31.03-62.07-36.2-136.2-13.79-201.71,31.03-93.1,136.19-220.67,268.94-327.55,137.92-108.62,368.93-249.98,562.01-343.07,503.4-239.64,1187.82-399.96,1558.47-367.21h0ZM2525.33,2524.54c-34.48,22.41-82.75,70.68-82.75,82.75,0,10.34,101.71-62.07,118.95-84.47,17.24-25.86,5.17-25.86-36.2,1.73h0ZM2713.24,2596.95c-18.96,18.95-27.58,31.03-20.69,31.03,15.52,0,74.13-39.66,74.13-51.73,0-18.97-20.69-12.07-53.44,20.69h0ZM2165.02,2683.15c-272.39,117.23-543.05,277.55-639.59,375.83l-37.93,39.65,31.03-5.18c67.23-10.34,260.32-81.02,375.83-137.91,184.47-91.38,287.9-167.23,358.59-260.32,27.58-36.21,39.65-60.34,27.58-60.34-1.72,0-53.44,20.69-115.51,48.28h0ZM6754.23,1800.47c312.04,20.69,546.5,82.75,596.49,158.61,32.76,46.55,17.24,108.62-43.1,165.51-60.34,56.89-167.23,118.94-324.11,186.19-305.14,131.01-587.87,212.05-855.09,244.8-108.61,12.07-168.95,10.34-222.39-10.35-77.58-29.31-110.33-72.41-117.23-153.43l-5.17-46.55-62.06,44.82c-34.48,24.13-79.3,58.62-101.71,75.86-29.31,22.41-46.55,31.03-58.62,29.31-22.41-3.45-49.99-41.37-49.99-70.68,0-27.58,27.58-82.76,58.62-117.23,24.14-25.86,25.86-25.86,37.93-13.79,8.62,6.89,15.52,22.41,18.96,34.47,3.45,17.24,0,27.58-22.41,55.18-12.07,17.23-22.41,34.47-20.69,36.2,5.17,3.45,50-22.41,148.26-86.2,98.27-65.5,99.99-63.79,93.09,34.49-3.45,65.5-3.45,68.96,12.07,84.47,36.2,39.65,84.47,51.71,201.7,51.71,217.22,0,532.71-81.02,934.39-237.9,224.12-87.92,379.27-193.09,379.27-255.16,0-20.68-43.1-60.33-91.37-82.75-198.26-94.81-630.97-118.94-1139.55-65.5-308.59,32.76-649.94,101.72-760.27,153.43-24.14,10.34-27.58,15.52-20.69,22.42,10.34,12.07-1.72,27.58-27.58,34.47-20.69,5.18-36.2-10.34-36.2-39.65,0-43.1,105.16-103.44,236.18-136.2,241.36-60.33,946.46-115.51,1241.26-96.54h0ZM4021.73,1915.98c10.34,20.69,10.34,24.13-29.31,81.02-87.92,129.3-253.42,444.78-344.79,663.73-67.23,156.88-70.68,170.67-60.34,191.37,12.07,20.68,5.17,46.55-22.41,77.58-22.41,24.13-24.14,24.13-44.82,15.5-44.82-18.95-51.72-48.26-27.58-118.94,13.79-41.37,148.26-317.21,203.43-418.93,170.67-312.03,287.9-503.4,310.31-503.4,5.17,0,12.07,5.18,15.52,12.07h0ZM1820.22,2098.71c1.72,12.08-1.72,24.15-13.79,39.66-34.48,46.54-155.16,239.63-215.5,344.79-82.75,144.81-177.57,332.71-231.01,462.01-39.65,91.38-151.71,384.46-151.71,396.52,0,1.73,6.9,1.73,17.24-1.73,37.93-8.61,41.38,55.16,3.45,82.75q-18.96,13.79-41.38,0c-32.76-18.95-55.17-53.44-55.17-86.2,0-60.34,165.5-424.09,327.55-717.17,99.99-182.74,270.66-458.58,318.94-515.47,20.69-25.86,34.48-27.58,41.38-5.18h0ZM6130.15,2745.2c13.79,13.79,10.34,24.15-8.62,39.66-18.96,15.52-81.03,20.68-89.65,8.61-5.17-8.61,8.62-32.76,22.41-41.37,24.14-12.07,67.23-15.52,75.86-6.9h0ZM5740.53,2769.35c10.34,10.34,5.17,34.47-8.62,48.26-10.34,10.35-27.58,12.07-101.71,13.79-48.27,1.73-127.57,5.18-177.57,10.35-48.27,3.44-179.29,12.07-289.63,20.68-829.23,56.89-1467.1,141.36-2120.49,279.29-491.33,103.44-984.39,253.42-1239.54,379.27-58.62,27.58-108.61,51.73-112.06,51.73-12.07,0-27.58-41.37-27.58-72.41v-32.76l43.1-18.97c48.27-22.41,208.6-74.12,374.1-120.67,446.51-127.57,1405.04-322.39,1910.16-386.17,134.47-17.24,417.2-48.28,972.32-103.44,170.67-17.24,384.45-39.65,475.82-50,182.74-20.68,294.8-27.58,301.7-18.95h0Z"/>
</svg>